<?xml version="1.0" standalone="no"?>
<!DOCTYPE svg PUBLIC "-//W3C//DTD SVG 1.1//EN" "http://www.w3.org/Graphics/SVG/1.1/DTD/svg11.dtd" >
<!--
2013-9-30: Created.
-->
<svg>
<metadata>
Created by iconfont
</metadata>
<defs>

<font id="layui-icon" horiz-adv-x="1024" >
  <font-face
    font-family="layui-icon"
    font-weight="500"
    font-stretch="normal"
    units-per-em="1024"
    ascent="896"
    descent="-128"
  />
    <missing-glyph />
    
    <glyph glyph-name="x" unicode="x" horiz-adv-x="1001"
d="M281 543q-27 -1 -53 -1h-83q-18 0 -36.5 -6t-32.5 -18.5t-23 -32t-9 -45.5v-76h912v41q0 16 -0.5 30t-0.5 18q0 13 -5 29t-17 29.5t-31.5 22.5t-49.5 9h-133v-97h-438v97zM955 310v-52q0 -23 0.5 -52t0.5 -58t-10.5 -47.5t-26 -30t-33 -16t-31.5 -4.5q-14 -1 -29.5 -0.5
t-29.5 0.5h-32l-45 128h-439l-44 -128h-29h-34q-20 0 -45 1q-25 0 -41 9.5t-25.5 23t-13.5 29.5t-4 30v167h911zM163 247q-12 0 -21 -8.5t-9 -21.5t9 -21.5t21 -8.5q13 0 22 8.5t9 21.5t-9 21.5t-22 8.5zM316 123q-8 -26 -14 -48q-5 -19 -10.5 -37t-7.5 -25t-3 -15t1 -14.5
t9.5 -10.5t21.5 -4h37h67h81h80h64h36q23 0 34 12t2 38q-5 13 -9.5 30.5t-9.5 34.5q-5 19 -11 39h-368zM336 498v228q0 11 2.5 23t10 21.5t20.5 15.5t34 6h188q31 0 51.5 -14.5t20.5 -52.5v-227h-327z" />
    

    
    <glyph glyph-name="reply-fill" unicode="&#58897;" d="M507.904 835.5840000000001q93.184 1.024 175.104-33.792t143.872-94.72 97.792-141.312 36.864-174.592q1.024-88.064-30.208-165.888t-87.04-137.728-131.072-98.816-162.304-48.128q-22.528-3.072-48.128-5.12t-56.832-3.072-69.632 0-86.528 6.144q-106.496 10.24-158.208 26.624t-41.472 18.432q54.272 9.216 93.184 29.696 20.48 11.264 16.896 32.256t-19.968 39.424q-52.224 57.344-84.48 133.632t-34.304 164.352q-1.024 93.184 33.792 175.104t95.232 143.36 142.336 97.28 175.104 36.864zM707.584 385.024q0-26.624 18.432-45.568t45.056-18.944 45.568 18.944 18.944 45.568-18.944 45.056-45.568 18.432-45.056-18.432-18.432-45.056zM450.56 385.024q0-26.624 19.456-46.08t46.08-19.456q27.648 0 46.592 19.456t18.944 46.08q0 27.648-18.944 46.592t-46.592 18.944q-26.624 0-46.08-18.944t-19.456-46.592zM196.608 386.048q0-26.624 18.944-46.08t45.568-19.456q27.648 0 46.592 19.456t18.944 46.08-18.944 45.568-46.592 18.944q-26.624 0-45.568-18.944t-18.944-45.568z"  horiz-adv-x="1024" />

    
    <glyph glyph-name="set-fill" unicode="&#58900;" d="M916.9398 445.2101l-69.9664 10.7833c-18.6619 2.863-38.1388 17.826-43.3424 33.2487-5.1618 15.3809-15.0883 65.4524-3.9288 80.6661l41.9004 57.135c11.1595 15.2346 9.3832 38.5985-3.9706 51.9314l-30.6364 30.6573c-13.3538 13.3538-36.7177 15.151-51.9314 3.9497l-57.135-41.8795c-15.2346-11.1804-39.4344-14.3987-53.7704-7.168-14.3569 7.2307-57.3022 35.7773-60.1652 54.4183l-10.7833 69.9664C570.3471 807.6016 552.542 822.8571 533.6712 822.8571h-43.34236734693877c-18.8709 0-36.6759-15.2555-39.5389-33.9174l-10.7833-69.9664c-2.863-18.6619-17.826-38.1388-33.2487-43.3424-15.4018-5.1827-65.4524-15.1092-80.687-3.9288L268.9567 713.5817c-15.2346 11.1804-38.6194 9.3832-51.9523-3.9497l-30.6364-30.6573c-13.3747-13.3538-15.151-36.7177-3.9706-51.9314l41.9004-57.135c11.1595-15.2346 14.3778-39.4136 7.168-53.7704-7.2307-14.3569-35.7773-57.2813-54.4183-60.1443l-69.9664-10.7833C88.3984 442.3471 73.1429 424.542 73.1429 405.6712v-43.34236734693877c0-18.8709 15.2555-36.6759 33.9174-39.5389l69.9664-10.7833c18.6619-2.863 38.1388-17.8469 43.3424-33.2487 5.1618-15.4018 15.0883-65.4733 3.9288-80.687l-41.9004-57.135c-11.1595-15.2346-9.3832-38.6194 3.9706-51.9314l30.6364-30.6573c13.3538-13.3538 36.7177-15.151 51.9523-3.9706l57.135 41.9213c15.2346 11.1386 39.4136 14.3778 53.7704 7.168 14.3569-7.2307 57.2813-35.7773 60.1443-54.4183l10.7833-69.9664c2.863-18.6619 20.6472-33.9174 39.5389-33.9174h43.34236734693877c18.8709 0 36.6759 15.2555 39.5389 33.9174l10.7833 69.9664c2.863 18.6619 17.826 38.1388 33.2487 43.3215 15.4018 5.1827 65.4524 15.0883 80.6661 3.9288l57.1559-41.9213c15.2346-11.1595 38.5985-9.3623 51.9314 3.9706l30.6364 30.6573c13.3747 13.3329 15.151 36.7177 3.9706 51.9314l-41.9004 57.135c-11.1595 15.2346-14.3778 39.4136-7.168 53.7496 7.2307 14.3778 35.7773 57.3231 54.4183 60.1861l69.9664 10.7833c18.6619 2.863 33.9174 20.6472 33.9174 39.5389v43.34236734693877C950.8571 424.542 935.6016 442.3471 916.9398 445.2101zM512 210.4633c-95.838 0-173.5367 77.6986-173.5367 173.5367s77.6986 173.5367 173.5367 173.5367 173.5367-77.6986 173.5367-173.5367S607.838 210.4633 512 210.4633zM512 384m-104.7824 0a5.014 5.014 0 1 1 209.5647 0 5.014 5.014 0 1 1-209.5647 0Z"  horiz-adv-x="1024" />

    
    <glyph glyph-name="menu-fill" unicode="&#58895;" d="M511.999488 834.254727c-248.678712 0-450.273176-201.585181-450.273176-450.254727s201.594464-450.254727 450.273176-450.254727 450.273176 201.585181 450.273176 450.254727S760.6782 834.254727 511.999488 834.254727zM266.371377 589.705012l491.256222 0 0-33.772174L266.371377 555.932838 266.371377 589.705012zM757.627599 178.29396499999996L266.371377 178.29396499999996l0 33.773198 491.256222 0L757.627599 178.29396499999996zM140.487278 367.11340099999995l0 33.771151 743.024421 0 0-33.771151L140.487278 367.11340099999995z"  horiz-adv-x="1024" />

    
    <glyph glyph-name="search" unicode="&#58901;" d="M439.323351 120.52219c-49.280352 0-97.09834 9.656941-142.126681 28.699646-43.480015 18.388812-82.522793 44.706201-116.043584 78.225619s-59.841305 72.560596-78.230871 116.03883C83.878729 388.513804 74.222416 436.330856 74.222416 485.609189c0 49.284473 9.656313 97.104595 28.699798 142.133138 18.388542 43.479257 44.71008 82.520435 78.231894 116.03883 33.518745 33.515325 72.562546 59.832713 116.043584 78.219479 45.027318 19.039635 92.846329 28.694529 142.125658 28.694529 49.280352 0 97.099364-9.653871 142.126681-28.694529 43.481039-18.385742 82.525863-44.704155 116.044608-78.220502 33.520791-33.518395 59.842328-72.559573 78.230871-116.03883 19.042462-45.028543 28.699798-92.848665 28.699798-142.133138 0-49.278333-9.657336-97.095385-28.701845-142.122905-18.388542-43.47721-44.708033-82.520435-78.228824-116.03883s-72.563569-59.838853-116.043584-78.226642C536.422715 130.177084 488.603703 120.52219 439.323351 120.52219zM439.323351 797.483242c-171.975699 0-311.887855-139.906423-311.887855-311.875077S267.347652 173.734112 439.323351 173.734112s311.887855 139.907447 311.887855 311.874053S611.299051 797.483242 439.323351 797.483242zM890.678206-48.734702c-22.121716 0-42.90387 8.562003-58.541653 24.115234L674.672953 128.025071l37.039062 38.20616 157.888289-153.058978c5.606924-5.606695 13.091693-8.692986 21.077901-8.692986 7.983139 0 15.464837 3.087315 21.070738 8.69094 5.616135 5.622044 8.715856 13.126972 8.715856 21.123087 0 7.980765-3.091535 15.46318-8.702552 21.067828l-0.301888 0.306992L758.714395 213.230662l38.207726 37.035498 152.611906-157.427472c15.571265-15.638165 24.144876-36.422538 24.144876-58.549487 0-22.195511-8.625801-43.054585-24.287121-58.735729C933.723298-40.112324 912.876674-48.734702 890.678206-48.734702zM281.015489 327.245392c-42.340005 42.320874-65.652899 98.584296-65.643689 158.421102 0.008187 59.818387 23.319034 116.074645 65.637549 158.4078l37.634651-37.619806c-66.60666-66.629513-66.60973-175.00071-0.007163-241.577011L281.015489 327.245392z"  horiz-adv-x="1024" />

    
    <glyph glyph-name="share" unicode="&#58945;" d="M769.714 306.453c-51.754 0-97.702-24.851-126.571-63.269L394.479 367.94100000000003c3.93 13.798 6.034 28.364 6.034 43.424 0 16.496-2.527 32.399-7.211 47.35l247.724 124.288c28.71-40.052 75.647-66.151 128.687-66.151 87.388 0 158.229 70.84 158.229 158.229 0 87.388-70.841 158.229-158.229 158.229-87.389 0-158.229-70.841-158.229-158.229 0-6.046 0.352-12.009 1.011-17.88L351.22 526.116c-28.371 26.943-66.723 43.479-108.938 43.479-87.388 0-158.229-70.84-158.229-158.229s70.84-158.229 158.229-158.229c43.752 0 83.354 17.758 111.997 46.459l258.676-129.779c-0.964-7.062-1.474-14.266-1.474-21.592 0-87.389 70.84-158.229 158.229-158.229s158.229 70.84 158.229 158.229C927.938 235.61199999999997 857.103 306.453 769.714 306.453L769.714 306.453z"  horiz-adv-x="1024" />

    
    <glyph glyph-name="set-sm" unicode="&#58912;" d="M946.367 405.895c0.02 21.85-13.04 38.49-31.74 41.57-18.69 3.07-79.05 13.01-85.99 14.14-6.95 1.15-14.09 8.07-15.4 11.45-1.32 3.37-8.94 22.2-11.87 29.46-2.95 7.27-1.92 16.58 4.39 25.52 6.3 8.93 39.9 55.87 48.38 67.72 8.49 11.87 8.65 34.61-4.84 48.39-13.48 13.78-47.75 47.09-56.73 55.86-8.99 8.76-31.08 8.64-42.67 0.43-11.58-8.2-71.69-51.01-71.69-51.01s-9.97-6.89-20.67-2.64c-10.7 4.24-33.43 14.07-33.43 14.07s-7.19 5.43-9.68 19.79c-2.5 14.37-11.11 65.28-14.07 82.7-2.97 17.42-20.67 29.62-37.83 29.46-17.16-0.14-57.91 0-74.33 0s-32.26-15.68-34.75-29.46c-2.49-13.79-11.56-69.16-14.07-84.45-2.52-15.3-11.44-18.48-11.44-18.48s-19.56-8.06-29.91-12.31c-10.34-4.26-15.39-2.64-30.35 7.48-14.95 10.11-44.74 31.03-63.04 43.83-18.3 12.81-38.12 7.92-49.26-3.52s-36.06-35.77-51.02-50.43c-14.95-14.66-12.61-37.54 0.58-55.71 13.2-18.18 32.34-45.43 41.35-58.21 9.01-12.78 10.84-19.5 8.36-26.82-2.49-7.34-6.64-16.58-11.43-27.72-4.81-11.13-9.69-13.64-27.86-17.01-17.36-3.21-58.42-9.92-77.4-13.31-18.99-3.37-30.66-21.43-30.66-41.81l0-64.66c0-24.34 13.2-37.24 38.42-41.93 25.22-4.69 62.66-10.66 74.77-12.61 12.1-1.95 17.67-6.6 21.41-15.54 3.73-8.94 5.13-10.12 9.37-22.57 4.26-12.47 6.46-15.55-4.98-31.67-11.44-16.13-34.31-48.11-46.03-64.51-11.74-16.4-6.45-37.83 4.98-49.85 11.44-12.03 35.47-35.64 48.97-48.97 13.49-13.33 35.19-16.28 53.36-3.52 18.19 12.75 54.98 38.99 65.69 46.62 10.7 7.63 21.91 5.28 27.85 2.94 5.94-2.35 11.25-4.6 22-9.1 10.73-4.48 13.85-11.2 16.41-23.45 2.57-12.24 10.19-56.85 13.93-78.59 3.75-21.72 18.91-33.43 40.62-33.72 21.7-0.29 33.27-0.12 61.57 0 28.29 0.13 41.86 12.61 45.45 31.38 3.59 18.76 12.45 72.94 14.22 83.72 1.78 10.76 5.94 14.73 13.63 18.47 7.7 3.74 14.32 6.47 26.84 11.88 12.51 5.4 18.91 0.66 27.7-5.72 8.8-6.39 47.51-33.78 63.78-45.31 16.28-11.53 36.73-10.33 51.9 4.4 15.18 14.73 31.62 30.99 49.27 48.38 17.64 17.4 12.16 39.59 4.4 51.46-7.77 11.88-44.49 62.95-49.71 70.23-5.21 7.28-4.4 18.62-1.75 24.63 2.64 6.01 8.44 18.24 11.72 25.22 3.29 6.97 9.6 11.22 18.18 12.9 8.58 1.69 62.72 11 83.75 14.61 21.03 3.64 31.11 19.92 31.26 39.92C946.427 359.93499999999995 946.347 388.525 946.367 405.895zM908.587 338.615c0.21-5.76-4.66-10.65-8.82-11.38-4.17-0.73-63.26-11.38-81.48-14.29-18.21-2.92-33.23-15.07-38.72-28.06-3.98-9.44-5.47-13.51-10.59-26.96-5.12-13.44-4.64-32.19 2.56-42.26 7.2-10.08 46.82-64.9 50.38-70.45s4.27-11.95-1.28-17.5-40.99-41.2-47.39-47.39c-6.41-6.19-11.83-4.8-18.79 0-6.95 4.8-39.61 26.39-64.44 44.36-16.96 12.28-32.82 12.43-48.7 6.02-15.87-6.42 1.28 0.28-22.2-8.97-23.48-9.25-30.23-27.62-33.73-48.24-3.5-20.63-10.67-62.98-11.95-70.45-1.28-7.47-5.55-11.1-13.66-11.1l-64.9 0c-8.11 0-11.74 2.99-14.52 11.95-2.77 8.97-10.03 54.87-12.8 74.29-2.78 19.43-13.82 36.12-24.77 40.56-10.94 4.45-4.98 2.14-27.32 11.1-22.34 8.97-39.63 4.5-51.23-3.84-11.61-8.34-58.64-42.69-65.33-46.96-6.68-4.28-14.65-3.28-18.35 0.42-3.7 3.7-40.56 40.56-46.54 46.54-5.98 5.98-5.36 12.92 0 20.49 5.36 7.58 28.39 40.76 40.99 57.95 12.59 17.2 17.93 34.74 9.82 53.49-8.12 18.74-4.42 10.24-12.39 28.6-7.96 18.36-24.28 24.46-38.42 26.9-14.14 2.43-68.88 11.53-76.85 13.23-7.97 1.71-11.95 7.26-11.95 14.09l0 66.18c0 9.53 7.67 12.44 12.38 13.23 4.7 0.8 54.22 9.18 73 12.39 18.79 3.2 36.36 11.32 43.55 29.03 7.19 17.7 4.27 11.1 11.1 27.32 6.83 16.23 3.8 33.94-7.68 49.96-11.49 16.01-38.85 54-44.4 61.9-5.55 7.9-5.77 12.6 0.85 19.21 6.62 6.62 42.05 42.48 46.96 46.97 4.91 4.48 12.07 5.4 18.36 0.85 6.3-4.55 49.31-35.65 64.04-46.11 14.73-10.46 32.35-12.56 49.1-5.55 16.75 7.02 10.25 4.48 26.9 11.1s24.84 19.09 28.18 39.71c3.33 20.61 11.95 74.14 12.81 77.7 0.85 3.55 5.55 10.46 11.74 10.46s65.82-0.07 69.8 0c3.99 0.07 10.3-3.29 11.32-9.18 1.02-5.9 13.02-74.29 14.94-86.25 1.92-11.95 15.58-28.57 25.54-32.73 9.96-4.16 21.35-8.75 31.31-13.09 9.97-4.34 30.13-1.91 36.15 2.28 6.03 4.18 70.52 48.81 75.43 52.37 4.91 3.56 11.52 3.27 17.64-2.85s43.34-43.19 47.54-47.53c4.19-4.34 4.66-8.66 1.14-13.66-3.53-5.01-36.72-51.8-47.54-67.46-10.81-15.65-11.73-33.73-5.41-48.96 6.33-15.22 3.99-9.39 9.11-21.91 5.13-12.53 16.28-29.03 33.59-31.88 17.31-2.85 76.92-12.74 84.82-13.95 7.9-1.21 11.1-7.18 11.1-13.37S908.377 344.385 908.587 338.615zM526.833 573.1949999999999c-110.45 0-200-89.54-200-200s89.55-200 200-200c110.46 0 200 89.54 200 200S637.293 573.1949999999999 526.833 573.1949999999999zM526.833 208.19500000000005c-91.12 0-165 73.87-165 165s73.88 165 165 165c91.13 0 165-73.87 165-165S617.963 208.19500000000005 526.833 208.19500000000005z"  horiz-adv-x="1024" />

    
    <glyph glyph-name="engine" unicode="&#58920;" d="M422.214332 360.70413299999996L186.183684 360.70413299999996l0 46.568461 236.030648 0c10.379577 40.075407 46.47537 69.794509 89.785668 69.794509 51.432433 0 93.067103-41.657943 93.067103-93.067103C605.067103 332.56756700000005 563.40916 290.909624 512 290.909624 468.689703 290.909624 432.593909 320.65199900000005 422.214332 360.70413299999996L422.214332 360.70413299999996zM512 779.634098c-218.529658 0-395.634098-177.10444-395.634098-395.634098 0-218.529658 177.10444-395.634098 395.634098-395.634098 154.76275 0 288.417257 89.064217 353.440885 218.55293l101.398692-59.112389-23.063141-39.959044-62.161099 35.909613c-33.745261-51.595341-77.42792-96.115813-129.093079-129.744711l35.653614-61.765464-40.308133-23.295867-35.653614 61.765464c-53.620057-27.345298-113.360805-44.404109-176.894987-47.73209L535.319139-127.99706800000001l-46.568461 0 0 70.981412c-63.534182 3.327981-123.27493 20.386792-176.894987 47.73209l-35.653614-61.765464-40.308133 23.295867 35.653614 61.765464c-51.665159 33.628898-95.347818 78.149371-129.093079 129.744711l-62.161099-35.909613-23.295867 40.308133 62.114553 35.863067c-27.415116 53.550239-44.799743 113.104807-48.127724 176.685534L0.002932 360.70413299999996l0 46.568461 70.958139 0c3.327981 63.580727 20.712609 123.135295 48.127724 176.685534l-62.114553 35.863067 23.295867 40.308133 62.161099-35.909613c33.745261 51.595341 77.42792 96.115813 129.093079 129.744711l-35.653614 61.765464 40.308133 23.295867 35.653614-61.765464c53.620057 27.345298 113.360805 44.404109 176.894987 47.73209L488.727406 895.997068l46.568461 0 0-70.981412c63.534182-3.327981 123.27493-20.386792 176.894987-47.73209l35.653614 61.765464 40.308133-23.295867-35.653614-61.765464c51.665159-33.628898 95.347818-78.149371 129.093079-129.744711l62.161099 35.909613 23.063141-39.959044-101.398692-59.112389C800.417257 690.569881 666.76275 779.634098 512 779.634098L512 779.634098z"  horiz-adv-x="1024" />

    
    <glyph glyph-name="close" unicode="&#4102;" d="M783.483 701.249L512 429.775 240.517 701.249c-10.082 10.083-26.429 10.083-36.51 0-10.083-10.082-10.083-26.429 0-36.509l271.481-271.475L204.008 121.78800000000001c-10.083-10.081-10.083-26.428 0-36.508 10.082-10.082 26.429-10.082 36.51 0L512 356.755l271.483-271.475c10.082-10.082 26.429-10.082 36.513 0 10.081 10.083 10.081 26.428 0 36.508L548.51 393.265l271.485 271.474c10.081 10.083 10.081 26.429 0 36.509C809.912 711.33 793.564 711.33 783.483 701.249z"  horiz-adv-x="1024" />

    
    <glyph glyph-name="close-fill" unicode="&#4103;" d="M512 822.022125c-217.47508 0-394.423141-176.949085-394.423141-394.423141 0-217.474057 176.948061-394.422118 394.423141-394.422118 217.473033 0 394.422118 176.948061 394.422118 394.422118C906.422118 645.07304 729.473033 822.022125 512 822.022125zM702.228529 270.92978200000005c8.030907-8.030907 8.030907-21.052478 0-29.083385s-21.052478-8.030907-29.083385 0L512 402.992563 350.853833 241.84741899999995c-8.030907-8.030907-21.052478-8.030907-29.083385 0s-8.030907 21.052478 0 29.083385l161.146167 161.146167L321.771471 593.222115c-8.030907 8.030907-8.030907 21.052478 0 29.083385s21.052478 8.030907 29.083385 0l161.146167-161.146167L673.145144 622.305501c8.030907 8.030907 21.052478 8.030907 29.083385 0s8.030907-21.052478 0-29.083385L541.082362 432.075949 702.228529 270.92978200000005z"  horiz-adv-x="1024" />

    
    <glyph glyph-name="chart-screen" unicode="&#58921;" d="M963.930903 179.21903299999997l0 34.824133-37.354769-2.675946L926.576133 694.8538169999999 691.413206 694.8538169999999l0 70.462818L330.260819 765.316635l0-70.462818L95.690386 694.8538169999999l0-480.809627-35.621289 0 0-34.824133 432.583253 0 0-141.228535-90.313935 0 0-35.307134 216.753649 0 0 35.307134-90.313935 0L528.778128 179.21903299999997 963.930903 179.21903299999997zM366.212636 730.008478L655.216819 730.008478l0-35.307134L366.212636 694.7013440000001 366.212636 730.008478zM364.817869 332.73133600000006L222.224244 406.252817l14.295588 27.736715 123.238812-63.523779 173.928285 159.755494 127.5807-92.634794 93.13826 122.414027 12.420891-9.449209 12.420891-9.449209L667.639756 394.365068l-131.636063 95.621824L364.817869 332.73133600000006z"  horiz-adv-x="1024" />

    
    <glyph glyph-name="star" unicode="&#58880;" d="M749.624889-84.152889c-15.672889 0-31.246222 3.882667-45.084444 11.306667l-192.526222 103.637333L319.544889-72.817778c-31.203556-16.64-70.314667-14.392889-99.043556 5.304889-29.511111 20.337778-44.743111 55.921778-38.840889 90.695111l37.703111 225.251556L56.661333 410.908444c-25.002667 24.888889-33.464889 60.984889-22.058667 94.193778 11.349333 32.910222 40.064 56.576 74.965333 61.752889l221.326222 32.896 96.128 199.580444c15.488 32.085333 48.853333 52.807111 84.992 52.807111 36.167111 0 69.518222-20.736 84.963556-52.807111l96.156444-199.580444 221.297778-32.910222c34.872889-5.162667 63.616-28.8 74.979556-61.696 11.392-33.28 2.944-69.361778-22.030222-94.250667L804.622222 248.433778l37.745778-225.28c5.845333-34.773333-9.386667-70.357333-38.812444-90.638222C787.569778-78.392889 768.938667-84.152889 749.624889-84.152889zM512.014222 91.548444c4.636444 0 9.272889-1.137778 13.482667-3.384889l205.937778-110.862222c12.373333-6.641778 28.316444-5.802667 39.936 2.133333 11.392 7.836444 17.123556 21.006222 14.890667 34.304L746.097778 253.496889c-1.507556 9.088 1.450667 18.332444 7.964444 24.832l173.141333 172.842667c9.457778 9.429333 12.686222 23.025778 8.405333 35.484444-4.380444 12.672-15.701333 21.873778-29.525333 23.921778L669.866667 545.706667c-9.315556 1.379556-17.365333 7.296-21.447111 15.786667L545.720889 774.641778c-6.030222 12.529778-19.256889 20.608-33.706667 20.608s-27.690667-8.092444-33.763556-20.622222L375.608889 561.493333c-4.081778-8.490667-12.131556-14.407111-21.447111-15.786667L117.930667 510.577778c-13.624889-2.033778-25.201778-11.434667-29.539556-23.992889-4.266667-12.416-1.024-25.984 8.433778-35.399111L269.937778 278.328889c6.513778-6.499556 9.472-15.744 7.964444-24.832l-40.135111-239.744c-2.247111-13.312 3.484444-26.439111 14.976-34.360889 11.434667-7.836444 27.349333-8.775111 39.950222-2.062222l205.852444 110.833778C502.741333 90.410667 507.377778 91.548444 512.014222 91.548444zM200.32 439.210667c-6.840889 0-12.885333 4.963556-14.023111 11.946667-1.251556 7.751111 4.010667 15.061333 11.761778 16.312889l9.443556 1.536c7.793778 1.336889 15.061333-4.010667 16.312889-11.761778 1.251556-7.751111-4.010667-15.061333-11.761778-16.312889l-9.443556-1.536C201.856 439.267556 201.073778 439.210667 200.32 439.210667zM252.544 447.687111c-6.684444 0-12.643556 4.721778-13.937778 11.534222-1.493333 7.708444 3.555556 15.175111 11.264 16.654222l153.927111 29.696 58.055111 133.148444c3.157333 7.182222 11.548444 10.496 18.716444 7.352889 7.210667-3.143111 10.510222-11.52 7.367111-18.716444l-61.056-140.017778c-1.877333-4.295111-5.745778-7.395556-10.353778-8.277333l-161.28-31.118222C254.336 447.758222 253.44 447.687111 252.544 447.687111z"  horiz-adv-x="1024" />

    
    <glyph glyph-name="circle-dot" unicode="&#58903;" d="M513.133312 830.6731560000001c-247.538793 0-448.208115-200.669322-448.208115-448.207092 0-247.538793 200.670346-448.208115 448.208115-448.208115 247.538793 0 448.208115 200.670346 448.208115 448.208115C961.341427 630.004857 760.673128 830.6731560000001 513.133312 830.6731560000001zM513.132288-6.649187999999981c-214.901465 0-389.113205 174.212764-389.113205 389.114229 0 214.902488 174.21174 389.115252 389.113205 389.115252 214.903511 0 389.115252-174.212764 389.115252-389.115252C902.24754 167.563576 728.0358-6.649187999999981 513.132288-6.649187999999981zM513.133312 382.46504100000004m-344.602456 0a336.754 336.754 0 1 1 689.204911 0 336.754 336.754 0 1 1-689.204911 0Z"  horiz-adv-x="1024" />

    
    <glyph glyph-name="chat" unicode="&#58886;" d="M132.682393 414.567179c0 208.287837 166.471452 377.143593 379.317095 377.143593s385.380184-168.855756 385.380184-377.143593c0-177.196725-122.197086-325.812507-290.49821-366.259708l-116.291586-51.04763 0 41.126676C290.570353 52.175568999999996 132.682393 215.31206599999996 132.682393 414.567179zM83.799056 414.567179c0-211.946157 160.764474-387.135154 369.469819-415.152255-3.2623-20.458961-10.036587-65.024969-7.286963-65.024969 2.384303 0 114.89068 47.294143 189.700503 78.865185 176.193885 51.91437 304.518528 211.946157 304.518528 401.312038 0 231.432976-191.70823 419.042865-428.200432 419.042865S83.799056 646.0001560000001 83.799056 414.567179zM340.71952 276.63573699999995c22.935362-41.481763 89.831958-75.102489 170.391738-75.102489 79.650061 0 148.489916 32.909527 172.168198 73.681116-12.701277 5.979178-19.068288 8.02886-28.131711 12.21009-19.894096-31.257911-75.425853-59.661821-142.729725-59.661821-66.969251 0-122.836653 28.40391-143.598512 61.083194L340.71952 276.63573699999995z"  horiz-adv-x="1024" />

    
    <glyph glyph-name="release" unicode="&#58889;" d="M990.78144 828.5388800000001c-3.35872 1.59744-7.04512 2.37568-11.01824 2.37568-14.45888 0-27.60704-10.81344-27.40224-10.81344-8.8064-4.42368-880.59904-443.22816-911.44192-459.44832-17.408-9.13408-27.36128-24.73984-25.92768-40.71424 1.10592-13.14816 9.78944-23.51104 23.10144-27.77088 26.17344-8.27392 290.24256-91.58656 290.24256-91.58656l4.83328-1.47456 16.67072 50.05312-254.32064 79.54432 780.73856 406.28224c-82.82112-93.88032-420.53632-476.32384-436.10112-493.93664-20.11136-22.48704-29.4912-45.09696-29.40928-70.98368l0.28672-153.27232-0.08192 0c0 0 0.08192-53.49376 0.08192-53.6576l0-1.96608 0 0c1.18784-13.5168 12.73856-24.24832 26.54208-24.24832s25.51808 10.73152 26.74688 24.24832l0 0c0 0 0.53248 191.03744 0 205.08672-0.49152 12.4928 5.07904 26.54208 10.69056 33.05472 5.65248 6.38976 390.63552 442.61376 465.75616 527.81056-21.38112-106.41408-126.68928-629.76-128.24576-637.41952-0.8192-4.05504-2.58048-4.05504-3.35872-4.05504-0.6144 0-1.31072 0.12288-2.048 0.36864-7.45472 2.37568-268.82048 81.55136-279.92064 84.91008l-4.7104 1.4336-17.16224-50.50368 5.07904-1.59744c2.58048-0.77824 258.90816-79.09376 284.38528-86.46656 5.07904-1.47456 10.24-2.2528 15.44192-2.2528 26.99264 0 49.5616 19.37408 54.8864 46.98112 2.08896 10.93632 27.0336 134.67648 55.9104 277.99552 39.77216 197.14048 84.7872 420.61824 85.93408 427.6224l0.6144 3.31776C1009.70496 798.96576 1013.26848 817.9712 990.78144 828.5388800000001z"  horiz-adv-x="1024" />

    
    <glyph glyph-name="list" unicode="&#58890;" d="M618.04471 733.97072l-397.175835 0c-16.927531 0-30.699186-13.771655-30.699186-30.699186l0-638.543068c0-16.927531 13.771655-30.699186 30.699186-30.699186l582.261227 0c16.927531 0 30.699186 13.771655 30.699186 30.699186l-0.726547 476.760404L618.04471 733.97072zM803.771715 541.488871 619.537713 541.488871 619.537713 705.552483 803.771715 541.488871zM813.363164 64.728466c0-5.64251-4.590552-10.233062-10.233062-10.233062l-582.261227 0c-5.64251 0-10.233062 4.590552-10.233062 10.233062l0 638.543068c0 5.64251 4.590552 10.233062 10.233062 10.233062l378.202715 0 0-192.481849 214.291574 0L813.363164 64.728466zM298.129516 482.495268l55.258535 0 0-55.258535-55.258535 0 0 55.258535ZM399.777591 468.168981l323.364759 0 0-26.605961-323.364759 0 0 26.605961ZM298.129516 342.044446l55.258535 0 0-55.258535-55.258535 0 0 55.258535ZM399.777591 327.718159l323.364759 0 0-26.605961-323.364759 0 0 26.605961ZM298.129516 199.804884l55.258535 0 0-55.258535-55.258535 0 0 55.258535ZM399.777591 185.478598l323.364759 0 0-26.605961-323.364759 0 0 26.605961ZM881.315812 53.053566"  horiz-adv-x="1024" />

    
    <glyph glyph-name="chart" unicode="&#58924;" d="M953.440991 315.668729L784.061302 315.668729 681.06451 437.392024c-0.312108 0.373507-0.635473 0.737804-0.969071 1.094938-0.013303 0.014326-0.026606 0.027629-0.039909 0.041956-0.276293 0.293689-0.559748 0.582261-0.851391 0.86367-0.053212 0.051165-0.107447 0.099261-0.160659 0.150426-0.249687 0.237407-0.50142 0.470721-0.76134 0.697895-0.089028 0.078795-0.181125 0.153496-0.272199 0.230244-0.225127 0.191358-0.451278 0.381693-0.683569 0.565888-0.124843 0.099261-0.251733 0.192382-0.3776 0.288572-0.200568 0.153496-0.402159 0.306992-0.607844 0.454348-0.159636 0.11461-0.322341 0.224104-0.485047 0.334621-0.177032 0.12075-0.354064 0.242524-0.535189 0.35918-0.195451 0.12689-0.394996 0.246617-0.593518 0.367367-0.152473 0.092098-0.302899 0.186242-0.457418 0.275269-0.237407 0.137123-0.477884 0.268106-0.718361 0.397043-0.121773 0.065492-0.2415 0.132006-0.364297 0.195451-0.283456 0.146333-0.571005 0.285502-0.859577 0.420579-0.085958 0.040932-0.170892 0.082888-0.257873 0.122797-0.337691 0.154519-0.679475 0.298805-1.022283 0.437975-0.044002 0.017396-0.086981 0.036839-0.130983 0.055259-1.604544 0.638543-3.2623 1.113357-4.948709 1.416256-0.343831 0.062422-0.687662 0.112564-1.031493 0.160659-0.055259 0.008186-0.110517 0.01842-0.165776 0.025583-1.633197 0.216941-3.25923 0.26913-4.861728 0.173962-0.013303-0.001023-0.026606-0.001023-0.040932-0.002047-0.363274-0.022513-0.724501-0.054235-1.085728-0.091074-0.060375-0.00614-0.119727-0.011256-0.180102-0.017396-0.310062-0.034792-0.618077-0.077771-0.926092-0.122797-0.116657-0.017396-0.232291-0.032746-0.348947-0.051165-0.24764-0.040932-0.494257-0.086981-0.740874-0.135076-0.178055-0.033769-0.355087-0.067538-0.532119-0.105401-0.183172-0.039909-0.36532-0.083911-0.547469-0.127913-0.237407-0.056282-0.474814-0.113587-0.710175-0.176009-0.12075-0.032746-0.240477-0.068562-0.360204-0.102331-0.292666-0.082888-0.584308-0.168846-0.874927-0.26299-0.063445-0.020466-0.125867-0.042979-0.188288-0.063445-0.338714-0.112564-0.675382-0.230244-1.010003-0.357134-0.019443-0.007163-0.038886-0.01535-0.058328-0.022513-1.493004-0.571005-2.948145-1.284249-4.340865-2.149966-0.067538-0.041956-0.13303-0.088004-0.200568-0.12996-0.273223-0.172939-0.545422-0.346901-0.813528-0.531096-1.416256-0.971118-2.734274-2.089591-3.936659-3.333932-0.025583-0.026606-0.049119-0.053212-0.074701-0.079818-0.26299-0.275269-0.521886-0.555655-0.773619-0.843204-0.058328-0.066515-0.112564-0.134053-0.169869-0.200568-0.211824-0.246617-0.420579-0.496304-0.62217-0.751107-0.083911-0.106424-0.164752-0.214894-0.246617-0.322341-0.167822-0.218988-0.334621-0.437975-0.49528-0.663102-0.102331-0.14224-0.199545-0.287549-0.298805-0.431835-0.13303-0.194428-0.26606-0.387833-0.393973-0.586354-0.115634-0.179079-0.225127-0.360204-0.335644-0.541329-0.103354-0.168846-0.207731-0.336668-0.306992-0.508583-0.12689-0.220011-0.24764-0.443092-0.36839-0.666172-0.074701-0.138146-0.151449-0.275269-0.223081-0.416486-0.137123-0.265036-0.265036-0.533143-0.39295-0.802272-0.050142-0.105401-0.101307-0.209778-0.150426-0.316202-0.144286-0.317225-0.279363-0.63752-0.410346-0.958838-0.026606-0.064468-0.055259-0.127913-0.080841-0.193405-0.150426-0.378623-0.291642-0.760317-0.423649-1.14508-0.005117-0.016373-0.011256-0.031722-0.017396-0.048095-0.157589-0.463558-0.303922-0.930185-0.434905-1.400906l-97.897657-342.642824L435.093423 811.832042c-0.071631 0.569982-0.165776 1.13587-0.275269 1.696642-0.008186 0.040932-0.017396 0.081864-0.025583 0.12382-0.071631 0.356111-0.148379 0.709151-0.234337 1.061169-0.031722 0.128937-0.065492 0.255827-0.099261 0.38374-0.066515 0.254803-0.135076 0.508583-0.208754 0.760317-0.060375 0.206708-0.124843 0.411369-0.190335 0.615007-0.053212 0.166799-0.107447 0.332575-0.164752 0.49835-0.092098 0.26913-0.190335 0.535189-0.290619 0.800225-0.037862 0.098237-0.074701 0.196475-0.113587 0.293689-0.12382 0.313132-0.25378 0.623193-0.38988 0.930185-0.022513 0.050142-0.044002 0.100284-0.066515 0.150426-0.152473 0.338714-0.311085 0.672312-0.477884 1.00284-0.01228 0.024559-0.024559 0.049119-0.037862 0.074701-0.173962 0.343831-0.356111 0.682545-0.545422 1.017166-0.011256 0.019443-0.022513 0.039909-0.033769 0.059352-0.188288 0.330528-0.382717 0.654916-0.584308 0.975211-0.021489 0.034792-0.044002 0.068562-0.065492 0.103354-0.190335 0.298805-0.385786 0.592494-0.587378 0.88209-0.045025 0.065492-0.091074 0.12996-0.137123 0.194428-0.180102 0.252757-0.363274 0.502443-0.551562 0.74906-0.079818 0.105401-0.162706 0.208754-0.24457 0.312108-0.157589 0.199545-0.317225 0.396019-0.480954 0.590448-0.124843 0.149403-0.252757 0.295735-0.381693 0.442068-0.125867 0.14224-0.251733 0.284479-0.38067 0.424672-0.174985 0.191358-0.355087 0.378623-0.536212 0.563842-0.088004 0.090051-0.176009 0.180102-0.26606 0.26913-0.224104 0.222057-0.452301 0.440022-0.684592 0.653893-0.054235 0.050142-0.10847 0.100284-0.163729 0.150426-0.265036 0.240477-0.535189 0.474814-0.810459 0.704035-0.028653 0.023536-0.056282 0.047072-0.084934 0.070608-0.294712 0.243547-0.595564 0.479931-0.902556 0.711198-0.01535 0.011256-0.029676 0.022513-0.045025 0.033769-0.311085 0.232291-0.627287 0.458441-0.949628 0.677429-0.019443 0.013303-0.037862 0.025583-0.057305 0.038886-0.309038 0.208754-0.623193 0.411369-0.942465 0.606821-0.045025 0.027629-0.090051 0.054235-0.134053 0.081864-0.288572 0.174985-0.581238 0.343831-0.877997 0.50756-0.090051 0.050142-0.181125 0.098237-0.272199 0.147356-0.25071 0.134053-0.502443 0.265036-0.759293 0.391926-0.156566 0.077771-0.314155 0.151449-0.472767 0.226151-0.194428 0.091074-0.38988 0.182149-0.587378 0.268106-0.239454 0.105401-0.481977 0.204661-0.724501 0.302899-0.12382 0.049119-0.246617 0.100284-0.37146 0.148379-0.334621 0.128937-0.673335 0.249687-1.014096 0.36532-0.042979 0.014326-0.085958 0.029676-0.128937 0.044002-1.6158 0.536212-3.296069 0.915859-5.02034 1.119497-0.01535 0.002047-0.029676 0.004093-0.044002 0.00614-0.309038 0.035816-0.620124 0.062422-0.931209 0.086981-0.132006 0.010233-0.265036 0.025583-0.397043 0.033769-0.174985 0.011256-0.349971 0.01535-0.525979 0.022513-0.270153 0.01228-0.539282 0.024559-0.808412 0.027629-0.054235 0.001023-0.10847-0.001023-0.162706-0.001023-1.696642 0.010233-3.371794-0.149403-5.006014-0.466628-0.065492-0.01228-0.12996-0.027629-0.195451-0.039909-0.331551-0.067538-0.662079-0.13917-0.989537-0.218988-0.148379-0.035816-0.295735-0.075725-0.443092-0.11461-0.234337-0.061398-0.468674-0.124843-0.700965-0.192382-0.224104-0.065492-0.445138-0.135076-0.666172-0.206708-0.149403-0.048095-0.297782-0.096191-0.446162-0.147356-0.286526-0.098237-0.568958-0.201591-0.850367-0.309038-0.079818-0.030699-0.160659-0.061398-0.240477-0.093121-0.330528-0.12996-0.655939-0.267083-0.979304-0.410346-0.033769-0.01535-0.067538-0.029676-0.101307-0.045025-0.355087-0.159636-0.705058-0.325411-1.050935-0.500397-0.008186-0.004093-0.016373-0.008186-0.023536-0.01228-0.360204-0.182149-0.714268-0.372483-1.064238-0.569982-0.004093-0.002047-0.008186-0.005117-0.013303-0.007163-0.344854-0.196475-0.684592-0.399089-1.019213-0.610914-0.020466-0.013303-0.040932-0.025583-0.060375-0.038886-0.313132-0.199545-0.621147-0.404206-0.925069-0.61603-0.050142-0.034792-0.099261-0.070608-0.149403-0.105401-0.268106-0.190335-0.532119-0.38374-0.791016-0.583285-0.091074-0.069585-0.181125-0.141216-0.271176-0.212848-0.212848-0.167822-0.422625-0.337691-0.629333-0.512676-0.137123-0.11461-0.271176-0.232291-0.406253-0.349971-0.154519-0.1361-0.308015-0.272199-0.459464-0.412392-0.179079-0.164752-0.354064-0.332575-0.528026-0.502443-0.102331-0.100284-0.204661-0.199545-0.304945-0.301875-0.211824-0.212848-0.418532-0.430812-0.623193-0.651846-0.059352-0.064468-0.119727-0.128937-0.179079-0.194428-0.231267-0.254803-0.456395-0.515746-0.678452-0.780783-0.031722-0.037862-0.063445-0.075725-0.095167-0.11461-0.23536-0.285502-0.465604-0.577145-0.688685-0.874927-0.01842-0.024559-0.036839-0.048095-0.055259-0.072655-0.226151-0.301875-0.445138-0.60989-0.657986-0.923022-0.019443-0.028653-0.038886-0.057305-0.058328-0.084934-0.202615-0.300852-0.400113-0.606821-0.590448-0.916882-0.032746-0.053212-0.064468-0.105401-0.096191-0.158612-0.169869-0.282433-0.335644-0.567935-0.49528-0.857531-0.053212-0.097214-0.105401-0.194428-0.158612-0.292666-0.130983-0.24457-0.258896-0.490164-0.381693-0.73985-0.080841-0.162706-0.157589-0.326435-0.234337-0.491187-0.088004-0.189312-0.177032-0.378623-0.260943-0.571005-0.107447-0.245593-0.209778-0.493234-0.310062-0.741897-0.047072-0.11768-0.095167-0.234337-0.141216-0.354064-0.130983-0.340761-0.25378-0.684592-0.370437-1.030469-0.013303-0.037862-0.026606-0.075725-0.038886-0.113587-0.180102-0.543376-0.345877-1.092891-0.48914-1.650593L244.22942 305.59939599999996 67.355037 305.59939599999996c-14.128789 0-25.582655-11.453866-25.582655-25.582655s11.453866-25.582655 25.582655-25.582655l191.314257 0c0.867764 0 1.725294 0.044002 2.570545 0.128937 0.828878-0.080841 1.656733-0.1361 2.478448-0.1361 11.218506 0 21.512966 7.439436 24.644283 18.779715l113.358791 410.43686 103.412254-723.884758c0.00921-0.072655 0.021489-0.145309 0.030699-0.217964l0.046049-0.320295c0.002047-0.011256 0.005117-0.021489 0.00614-0.032746 0.109494-0.7552 0.25071-1.502213 0.425695-2.238994 0.01535-0.064468 0.031722-0.12689 0.047072-0.191358 0.166799-0.679475 0.358157-1.350764 0.579191-2.01182 0.041956-0.124843 0.088004-0.24764 0.130983-0.37146 0.210801-0.600681 0.437975-1.194198 0.692778-1.77646 0.068562-0.156566 0.144286-0.309038 0.215918-0.464581 0.223081-0.484024 0.460488-0.961908 0.713244-1.431605 0.106424-0.196475 0.213871-0.390903 0.325411-0.584308 0.265036-0.462534 0.545422-0.914836 0.838088-1.359974 0.088004-0.13303 0.170892-0.268106 0.260943-0.399089 0.354064-0.51677 0.732687-1.016143 1.12359-1.506307 0.078795-0.099261 0.156566-0.198521 0.237407-0.296759 0.420579-0.511653 0.864694-1.004887 1.325182-1.482771 0.051165-0.052189 0.101307-0.105401 0.152473-0.157589 0.494257-0.50449 1.010003-0.989537 1.548262-1.454118 0.00921-0.007163 0.017396-0.014326 0.026606-0.022513 1.636267-1.408069 3.466961-2.620687 5.466502-3.592828 0.075725-0.036839 0.151449-0.074701 0.228197-0.11154 0.576121-0.273223 1.165546-0.525979 1.768273-0.75827 0.158612-0.061398 0.319272-0.118704 0.478907-0.177032 0.558725-0.202615 1.124614-0.393973 1.704828-0.559748 0.005117-0.001023 0.010233-0.002047 0.01535-0.004093 0.278339-0.079818 0.562818-0.13917 0.844228-0.209778 0.394996-0.098237 0.789992-0.194428 1.184989-0.274246 0.283456-0.056282 0.568958-0.103354 0.854461-0.149403 0.445138-0.073678 0.889253-0.134053 1.333368-0.183172 0.229221-0.024559 0.456395-0.052189 0.686638-0.071631 0.710175-0.059352 1.418302-0.099261 2.122337-0.099261 0.337691 0 0.671289 0.027629 1.007957 0.040932 0.276293 0.011256 0.550539 0.013303 0.828878 0.033769 0.401136 0.029676 0.799202 0.079818 1.196245 0.127913 0.191358 0.022513 0.38067 0.033769 0.572028 0.061398 0.069585 0.010233 0.1361 0.024559 0.205685 0.034792 0.232291 0.034792 0.462534 0.075725 0.692778 0.116657 0.463558 0.082888 0.921999 0.176009 1.3743 0.283456 0.109494 0.025583 0.218988 0.047072 0.327458 0.074701 0.582261 0.145309 1.152243 0.316202 1.716084 0.499373 0.098237 0.031722 0.196475 0.063445 0.293689 0.097214 1.90335 0.644683 3.694135 1.50119 5.351891 2.540869 0.014326 0.00921 0.028653 0.01842 0.042979 0.027629 1.089821 0.686638 2.121314 1.452071 3.087315 2.287089 0.083911 0.071631 0.167822 0.143263 0.25071 0.215918 0.424672 0.3776 0.837064 0.76748 1.235131 1.170662 0.12382 0.124843 0.243547 0.254803 0.36532 0.382717 0.317225 0.334621 0.626263 0.677429 0.925069 1.028423 0.155543 0.183172 0.308015 0.36839 0.458441 0.556679 0.26606 0.331551 0.523933 0.670266 0.773619 1.01512 0.130983 0.180102 0.261966 0.35918 0.387833 0.543376 0.294712 0.429789 0.575098 0.86981 0.843204 1.316995 0.099261 0.165776 0.195451 0.334621 0.290619 0.503467 0.283456 0.499373 0.555655 1.004887 0.806365 1.52268 0.031722 0.065492 0.060375 0.13303 0.091074 0.199545 0.276293 0.584308 0.530073 1.178849 0.762363 1.784646 0.00614 0.017396 0.014326 0.034792 0.020466 0.051165 0.251733 0.661056 0.472767 1.336438 0.669242 2.020006 0.002047 0.008186 0.00614 0.016373 0.008186 0.024559l0.061398 0.215918c0.029676 0.106424 0.062422 0.210801 0.090051 0.317225l117.579929 411.527704 79.800487-94.308923c0.070608-0.083911 0.146333-0.161682 0.217964-0.243547 0.190335-0.220011 0.38374-0.436952 0.581238-0.649799 0.134053-0.144286 0.26913-0.285502 0.405229-0.425695 0.164752-0.168846 0.331551-0.335644 0.50142-0.500397 0.164752-0.159636 0.329505-0.319272 0.496304-0.473791 0.138146-0.12689 0.279363-0.25071 0.419556-0.37453 0.198521-0.174985 0.397043-0.350994 0.599657-0.518816 0.081864-0.067538 0.166799-0.132006 0.249687-0.198521 0.817622-0.661056 1.667989-1.264806 2.545986-1.811252 0.098237-0.061398 0.195451-0.125867 0.294712-0.185218 0.228197-0.138146 0.459464-0.267083 0.691755-0.398066 0.157589-0.089028 0.315178-0.178055 0.474814-0.264013 0.200568-0.107447 0.403183-0.208754 0.606821-0.311085 0.202615-0.101307 0.406253-0.201591 0.611937-0.297782 0.173962-0.080841 0.348947-0.159636 0.523933-0.237407 0.245593-0.10847 0.494257-0.212848 0.743944-0.313132 0.144286-0.058328 0.289596-0.115634 0.434905-0.171915 0.291642-0.11154 0.586354-0.216941 0.883113-0.317225 0.11154-0.037862 0.223081-0.076748 0.334621-0.113587 0.337691-0.109494 0.677429-0.210801 1.02126-0.305969 0.078795-0.021489 0.157589-0.046049 0.236384-0.066515 0.376577-0.101307 0.757247-0.193405 1.140986-0.277316 0.050142-0.011256 0.100284-0.023536 0.150426-0.034792 0.405229-0.085958 0.813528-0.162706 1.225921-0.229221 0.031722-0.005117 0.063445-0.01228 0.096191-0.017396 0.412392-0.065492 0.828878-0.12075 1.24741-0.165776 0.032746-0.004093 0.064468-0.00921 0.097214-0.01228 0.382717-0.039909 0.768503-0.068562 1.155313-0.092098 0.068562-0.004093 0.1361-0.01228 0.204661-0.01535 0.25992-0.013303 0.521886-0.01535 0.782829-0.020466 0.188288-0.004093 0.376577-0.01535 0.564865-0.01535 0.008186 0 0.01535 0.001023 0.023536 0.001023l181.208085 0c14.129812 0 25.582655 11.453866 25.582655 25.582655S967.56978 315.668729 953.440991 315.668729z"  horiz-adv-x="1024" />

    
    <glyph glyph-name="ok-circle" unicode="&#4101;" d="M516.152065-63.152063c-60.696384 0-119.594819 11.894911-175.056991 35.353183-53.55473 22.651906-101.646028 55.073316-142.936433 96.364745-41.291428 41.291428-73.712839 89.381703-96.363721 142.936433-23.458271 55.462173-35.353183 114.359584-35.353183 175.055968s11.894911 119.594819 35.353183 175.056991c22.651906 53.55473 55.073316 101.646028 96.363721 142.936433 41.290405 41.291428 89.381703 73.712839 142.936433 96.363721 55.462173 23.458271 114.359584 35.353183 175.056991 35.353183s119.594819-11.894911 175.056991-35.353183c53.55473-22.651906 101.645005-55.073316 142.936433-96.363721 41.291428-41.290405 73.711815-89.38068 96.363721-142.936433 23.459295-55.462173 35.353183-114.359584 35.353183-175.056991 0-60.696384-11.893888-119.593795-35.353183-175.055968-22.651906-53.55473-55.072293-101.645005-96.363721-142.936433s-89.381703-73.712839-142.936433-96.364745C635.747907-51.25715200000002 576.849472-63.152063 516.152065-63.152063zM516.152065 774.870222c-214.115566 0-388.311956-174.196391-388.311956-388.311956s174.196391-388.311956 388.311956-388.311956 388.311956 174.196391 388.311956 388.311956S730.268654 774.870222 516.152065 774.870222zM434.74908 132.830517L209.49278 358.08784 289.087583 437.68162 434.74908 292.020122 743.218594 600.488613 822.812373 520.89381Z"  horiz-adv-x="1024" />

    
    <glyph glyph-name="layim-theme" unicode="&#58907;" d="M958.830745 538.643056L740.659817 692.753993l-100.539834 0-3.977591-9.332553c-0.37146-0.871857-38.021965-86.8613-124.772748-88.667435-35.691897 0.76441-67.206658 15.500019-93.680613 43.828204-20.658506 22.106484-30.374798 44.584428-30.456662 44.776809l-3.955078 9.393951-100.587929 0L64.518433 538.643056 169.320337 379.756349l89.956801 65.019853-19.016099-368.05254 268.86654 0 4.093225 0 269.866311 0-19.016099 368.051517 89.956801-65.018829L958.830745 538.643056zM730.105437 507.20402l20.655436-399.781172-237.540068 0-4.093225 0L272.587282 107.42284700000005l20.656459 399.781172-115.938546-83.797521-36.3243 55.070246 159.440315 111.641683-19.276019 30.638811L121.066333 508.667348l-14.548344 22.056342 185.921433 131.330094 71.077825 0c5.332449-10.04375 15.433504-26.779923 30.951943-43.580564 32.047904-34.69622 72.256674-53.486168 116.345822-54.411237l0-0.031722c0.203638 0.00307 0.406253 0.01228 0.60989 0.016373 0.203638-0.00307 0.406253-0.013303 0.60989-0.016373l0 0.031722c44.073798 0.925069 84.359316 19.703761 116.566856 54.379515 15.623839 16.821107 25.814945 33.579793 31.188326 43.612287l71.120804 0 185.921433-131.330094-14.548344-22.056342L742.203986 620.7551920000001l-19.276019-30.638811 159.440315-111.641683-36.3243-55.070246L730.105437 507.20402z"  horiz-adv-x="1024" />

    
    <glyph glyph-name="table" unicode="&#58925;" d="M304.738028 343.684806M729.544153 511.153982M595.52788 637.723655M143.806755 686.614156l0-601.704045L881.172549 84.91011100000003l0 601.704045L143.806755 686.614156zM420.318416 299.80441299999995l0 128.936581 184.341448 0 0-128.936581L420.318416 299.80441299999995zM604.659865 256.825552l0-128.936581L420.318416 127.88897099999997l0 128.936581L604.659865 256.825552zM604.659865 600.656435l0-128.936581L420.318416 471.719854l0 128.936581L604.659865 600.656435zM374.232798 600.656435l0-128.936581L189.89135 471.719854l0 128.936581L374.232798 600.656435zM189.89135 428.740994L374.232798 428.740994l0-128.936581L189.89135 299.80441299999995 189.89135 428.740994zM650.745483 428.740994l184.341448 0 0-128.936581L650.745483 299.80441299999995 650.745483 428.740994zM650.745483 471.719854l0 128.936581 184.341448 0 0-128.936581L650.745483 471.719854zM189.89135 256.825552L374.232798 256.825552l0-128.936581L189.89135 127.88897099999997 189.89135 256.825552zM650.745483 127.88897099999997l0 128.936581 184.341448 0 0-128.936581L650.745483 127.88897099999997z"  horiz-adv-x="1024" />

    
    <glyph glyph-name="right" unicode="&#58882;" d="M283.648 721.9189759999999L340.873216 780.926976 740.352 383.99795200000005 340.876288-12.925952000000052 283.648 46.07795199999998 619.52 383.99795200000005Z"  horiz-adv-x="1024" />

    
    <glyph glyph-name="left" unicode="&#58883;" d="M740.352 721.9189759999999L683.126784 780.926976 283.648 383.99795200000005 683.123712-12.925952000000052 740.352 46.07795199999998 404.48 383.99795200000005Z"  horiz-adv-x="1024" />

    
    <glyph glyph-name="cart-simple" unicode="&#59032;" d="M235.097303 196.866982C247.384597 160.417152 286.382106 132.37606800000003 324.772759 132.37606800000003L861.658537 132.37606800000003 880.429732 132.37606800000003 885.649214 150.54185399999994 1009.08775 580.154957C1021.388907 622.967661 993.187631 660.786325 949.051586 660.786325L424.585365 660.786325C410.791718 660.786325 399.609756 649.5207379999999 399.609756 635.623932 399.609756 621.727125 410.791718 610.461538 424.585365 610.461538L949.051586 610.461538C959.924 610.461538 964.161052 604.779539 961.106394 594.148171L837.667859 164.53506800000002 861.658537 182.70085500000005 324.772759 182.70085500000005C307.742153 182.70085500000005 287.789837 197.04752900000005 282.395194 213.05054900000005L73.600164 832.433664C69.16437 845.592294 54.980454 852.636656 41.919502 848.167687 28.858551 843.698719 21.86648 829.408727 26.302275 816.250097L235.097303 196.866982ZM399.609756-6.017094000000043C399.609756 49.57012899999995 354.881911 94.63247799999999 299.707317 94.63247799999999 244.532723 94.63247799999999 199.804878 49.57012899999995 199.804878-6.017094000000043 199.804878-61.604318000000035 244.532723-106.66666699999996 299.707317-106.66666699999996 354.881911-106.66666699999996 399.609756-61.604318000000035 399.609756-6.017094000000043ZM249.756098-6.017094000000043C249.756098 21.77651800000001 272.120021 44.30769299999997 299.707317 44.30769299999997 327.294613 44.30769299999997 349.658537 21.77651800000001 349.658537-6.017094000000043 349.658537-33.810704999999984 327.294613-56.34187899999995 299.707317-56.34187899999995 272.120021-56.34187899999995 249.756098-33.810704999999984 249.756098-6.017094000000043ZM924.097562-6.017094000000043C924.097562 49.57012899999995 879.369715 94.63247799999999 824.195121 94.63247799999999 769.020529 94.63247799999999 724.292683 49.57012899999995 724.292683-6.017094000000043 724.292683-61.604318000000035 769.020529-106.66666699999996 824.195121-106.66666699999996 879.369715-106.66666699999996 924.097562-61.604318000000035 924.097562-6.017094000000043ZM774.243902-6.017094000000043C774.243902 21.77651800000001 796.607825 44.30769299999997 824.195121 44.30769299999997 851.782419 44.30769299999997 874.146342 21.77651800000001 874.146342-6.017094000000043 874.146342-33.810704999999984 851.782419-56.34187899999995 824.195121-56.34187899999995 796.607825-56.34187899999995 774.243902-33.810704999999984 774.243902-6.017094000000043Z"  horiz-adv-x="1024" />

    
    <glyph glyph-name="face-cry" unicode="&#59036;" d="M1024 384C1024 666.769792 794.769792 896 512 896 229.230208 896 0 666.769792 0 384 0 101.23020799999995 229.230208-128 512-128 629.410831-128 740.826187-88.33104600000001 830.768465-16.686661999999956 841.557579-8.092490999999995 843.33693 7.620766000000003 834.742758 18.409879000000046 826.148587 29.198990999999978 810.43533 30.978341999999998 799.646219 22.384173000000033 718.470035-42.277495000000044 618.001779-78.04878099999996 512-78.04878099999996 256.817504-78.04878099999996 49.951219 128.81750399999999 49.951219 384 49.951219 639.182496 256.817504 846.048781 512 846.048781 767.182496 846.048781 974.048781 639.182496 974.048781 384 974.048781 296.507166 949.714859 212.66323599999998 904.470807 140.039307 897.177109 128.33175700000004 900.755245 112.92820300000005 912.462793 105.63450699999999 924.170342 98.34080900000004 939.573897 101.91894200000002 946.867595 113.62649199999998 997.013826 194.11920399999997 1024 287.101621 1024 384ZM337.170731 396.487806C371.654852 396.487806 399.609756 424.442709 399.609756 458.926829 399.609756 493.41095 371.654852 521.365854 337.170731 521.365854 302.686611 521.365854 274.731708 493.41095 274.731708 458.926829 274.731708 424.442709 302.686611 396.487806 337.170731 396.487806ZM711.804879 396.487806C746.288998 396.487806 774.243902 424.442709 774.243902 458.926829 774.243902 493.41095 746.288998 521.365854 711.804879 521.365854 677.320757 521.365854 649.365854 493.41095 649.365854 458.926829 649.365854 424.442709 677.320757 396.487806 711.804879 396.487806ZM352.788105 191.21547499999997C396.165222 225.91716899999994 453.151987 246.639629 524.487806 246.639629 595.823622 246.639629 652.810387 225.91716899999994 696.187505 191.21547499999997 722.700531 170.00505399999997 738.882517 148.42907300000002 746.631548 132.931012 752.800254 120.59359800000004 747.799529 105.59142399999996 735.462114 99.42271600000004 723.124702 93.25401 708.122526 98.25473499999998 701.953818 110.59214899999995 701.03616 112.42746499999998 698.492224 116.61747600000001 694.165854 122.38597100000004 686.602473 132.47047699999996 676.927317 142.654852 664.983226 152.21012499999995 630.311565 179.947456 584.273939 196.68840999999998 524.487806 196.68840999999998 464.70167 196.68840999999998 418.664045 179.947456 383.992384 152.21012499999995 372.048292 142.654852 362.373137 132.47047699999996 354.809756 122.38597100000004 350.483386 116.61747600000001 347.93945 112.42746499999998 347.021792 110.59214899999995 340.853084 98.25473499999998 325.850908 93.25401 313.513495 99.42271600000004 301.176081 105.59142399999996 296.175356 120.59359800000004 302.344062 132.931012 310.093092 148.42907300000002 326.275078 170.00505399999997 352.788105 191.21547499999997Z"  horiz-adv-x="1024" />

    
    <glyph glyph-name="face-smile" unicode="&#59055;" d="M1024 384C1024 666.769792 794.769792 896 512 896 229.230208 896 0 666.769792 0 384 0 101.23020799999995 229.230208-128 512-128 629.410831-128 740.826187-88.33104600000001 830.768465-16.686661999999956 841.557579-8.092490999999995 843.33693 7.620766000000003 834.742758 18.409879000000046 826.148587 29.198990999999978 810.43533 30.978341999999998 799.646219 22.384173000000033 718.470035-42.277495000000044 618.001779-78.04878099999996 512-78.04878099999996 256.817504-78.04878099999996 49.951219 128.81750399999999 49.951219 384 49.951219 639.182496 256.817504 846.048781 512 846.048781 767.182496 846.048781 974.048781 639.182496 974.048781 384 974.048781 296.507166 949.714859 212.66323599999998 904.470807 140.039307 897.177109 128.33175700000004 900.755245 112.92820300000005 912.462793 105.63450699999999 924.170342 98.34080900000004 939.573897 101.91894200000002 946.867595 113.62649199999998 997.013826 194.11920399999997 1024 287.101621 1024 384ZM337.170731 396.487806C371.654852 396.487806 399.609756 424.442709 399.609756 458.926829 399.609756 493.41095 371.654852 521.365854 337.170731 521.365854 302.686611 521.365854 274.731708 493.41095 274.731708 458.926829 274.731708 424.442709 302.686611 396.487806 337.170731 396.487806ZM711.804879 396.487806C746.288998 396.487806 774.243902 424.442709 774.243902 458.926829 774.243902 493.41095 746.288998 521.365854 711.804879 521.365854 677.320757 521.365854 649.365854 493.41095 649.365854 458.926829 649.365854 424.442709 677.320757 396.487806 711.804879 396.487806ZM352.788105 127.22903299999996C396.165222 92.52733899999998 453.151987 71.80487900000003 524.487806 71.80487900000003 595.823622 71.80487900000003 652.810387 92.52733899999998 696.187505 127.22903299999996 722.700531 148.43945399999996 738.882517 170.01543500000002 746.631548 185.51349500000003 752.800254 197.850908 747.799529 212.85308399999997 735.462114 219.021792 723.124702 225.19049800000005 708.122526 220.18977299999995 701.953818 207.85235799999998 701.03616 206.01704299999994 698.492224 201.82703100000003 694.165854 196.058537 686.602473 185.97402899999997 676.927317 175.78965500000004 664.983226 166.23438299999998 630.311565 138.49705200000005 584.273939 121.75609799999995 524.487806 121.75609799999995 464.70167 121.75609799999995 418.664045 138.49705200000005 383.992384 166.23438299999998 372.048292 175.78965500000004 362.373137 185.97402899999997 354.809756 196.058537 350.483386 201.82703100000003 347.93945 206.01704299999994 347.021792 207.85235799999998 340.853084 220.18977299999995 325.850908 225.19049800000005 313.513495 219.021792 301.176081 212.85308399999997 296.175356 197.850908 302.344062 185.51349500000003 310.093092 170.01543500000002 326.275078 148.43945399999996 352.788105 127.22903299999996Z"  horiz-adv-x="1024" />

    
    <glyph glyph-name="survey" unicode="&#59058;" d="M722.355804 849.454545C761.006291 849.454545 792.380951 818.166023 792.380951 779.627344L792.380951 437.500928 799.081094 453.813218 401.874746 51.22138 418.539682 58.181818 138.070006 58.181818C99.387643 58.181818 68.063492 89.328555 68.063492 127.771428L68.063492 872.727273 44.698413 849.454545 722.355804 849.454545ZM21.333333 896 21.333333 872.727273 21.333333 127.771428C21.333333 63.604277 73.59726 11.636363 138.070006 11.636363L418.539682 11.636363 428.337293 11.636363 435.204619 18.596802 832.410967 421.18864 839.11111 427.979625 839.11111 437.500928 839.11111 779.627344C839.11111 843.859757 786.827324 896 722.355804 896L44.698413 896 21.333333 896ZM775.859347 307.365395 759.337741 290.90909 775.859347 274.452787 869.319663 181.361879 885.841269 164.905574 902.362876 181.361879 972.458114 251.18006 988.979721 267.636363 972.458114 284.092668 878.997796 377.183575 862.47619 393.639878 845.954583 377.183575 775.859347 307.365395ZM845.954583 344.27097 939.414901 251.18006 939.414901 284.092668 869.319663 214.274485 902.362876 214.274485 808.902558 307.365395 808.902558 274.452787 878.997796 344.27097 845.954583 344.27097ZM518.843473 51.365395 513.841133 46.382827 512.453734 39.473248 489.088655-76.890387 482.215251-111.121568 516.58227-104.275332 633.407665-81.002605 640.344663-79.620689 645.347004-74.638121 902.362876 181.361879 918.884482 197.818182 902.362876 214.274485 808.902558 307.365395 792.380951 323.821698 775.859347 307.365395 518.843473 51.365395ZM775.859347 274.452787 869.319663 181.361879 869.319663 214.274485 612.303791-41.725515 624.243127-35.361033 507.41773-58.633758 534.911345-86.018703 558.276425 30.344934 551.886686 18.452787 808.902558 274.452787 775.859347 274.452787ZM426.576706 298.269073C444.201086 298.269073 458.488469 284.053815 458.488469 266.500753L458.488469 258.086116C458.488469 240.540958 444.323959 226.317797 426.576706 226.317797L426.576706 226.317797C408.952326 226.317797 394.664943 240.533054 394.664943 258.086116L394.664943 266.500753C394.664943 284.045911 408.829453 298.269073 426.576706 298.269073L426.576706 298.269073ZM278.349205 552.435127C278.349205 552.435127 280.851125 530.485568 305.477133 530.485568 330.103138 530.485568 331.559155 552.435127 331.559155 552.435127 329.927383 623.508937 362.988497 657.25782 430.67155 653.905282 475.722639 648.839223 499.06407 623.508937 500.624896 577.839917 497.503245 557.501184 480.405116 531.202385 449.969026 499.092521 409.671358 458.489557 389.522524 422.133143 389.522524 390.023279L389.522524 357.093903C389.522524 357.093903 392.614705 337.454532 414.885933 337.454532 437.157161 337.454532 440.249342 357.093903 440.249342 357.093903L440.249342 379.965664C440.249342 406.785969 459.546816 439.044836 498.21271 476.369762 538.652271 513.471183 558.730159 547.369069 558.730159 577.839917 555.395669 662.323878 511.195938 706.353877 425.776235 709.780917 327.515198 711.419936 278.349205 658.971339 278.349205 552.435127Z"  horiz-adv-x="1024" />

    
    <glyph glyph-name="tree" unicode="&#58926;" d="M962.691679 258.53447400000005c-8.721639 54.163597-34.298154 97.584526-73.089645 133.8638-44.721551 41.825594-99.282191 65.724911-156.512636 84.432994-26.935466 8.80555-54.079686 16.971533-81.129762 25.427112 41.188074 7.485485 81.495082 10.991332 121.872698 12.269441 39.906895 1.26276 79.885422 0.276293 120.633475 0.276293-30.644951 44.233434-74.588789 71.110571-127.260405 84.384899-53.004191 13.357216-103.742782 9.715269-152.261822-32.081673 18.715247 66.336848 12.464893 120.18936-38.810934 160.830989-32.450063 25.719778-77.127611 31.000038-111.319341 14.916734 58.583257-31.127951 82.051761-84.265172 94.304829-145.102772-44.638663 69.056795-110.067838 96.432283-187.710173 86.487793-56.123228-7.187703-110.723777-26.270317-166.003801-40.048111 15.677051-14.358009 31.136138-24.116257 47.932686-27.839045 51.427276-11.399631 103.405091-20.301372 155.098427-30.524201 37.036521-7.323802 75.163887-12.144598 104.448864-40.879036-78.096682 23.458271-155.928329 30.034037-235.541551 9.092076C186.718589 530.20385 104.838743 479.821369 81.996502 429.437865c46.955428 23.955598 95.807043 18.776645 144.606469 17.139356 37.737486-1.266853 76.089979-3.461845 113.238041 1.594311 52.683896 7.170307 104.513332 20.624736 159.209048 31.909757-91.88164-62.077847-186.516997-122.342396-159.194722-259.889075 58.852386 100.205213 163.392324 150.107763 229.951229 238.105956-16.239869-91.498924 6.980995-169.376619 66.432015-237.83785 41.815361-48.152696 89.979314-92.010577 110.706381-156.013263 12.758582 141.877311-25.823132 270.789333-97.911984 396.334677C755.996107 391.809873 858.199837 325.909977 962.691679 258.53447400000005zM513.476631 320.10169099999996c-27.767414-14.065344-39.008432-35.954887-42.252313-64.998363-6.078439-54.437843-15.162328-108.532879-21.799492-162.916487-3.90903-32.026414-5.519714-64.333214-8.16496-96.53052 30.078039 0 55.507198 0 79.961146 0 9.912767 78.200036 19.732413 154.247037 28.913517 230.369761 0.883113 7.322779-0.756223 15.746636-3.705392 22.591531C536.246217 272.25086999999996 524.967336 295.41135899999995 513.476631 320.10169099999996z"  horiz-adv-x="1024" />

    
    <glyph glyph-name="upload-circle" unicode="&#58927;" d="M512-128c282.768 0 512 229.216 512 512C1024 666.768 794.768 896 512 896 229.216 896 0 666.768 0 384 0 101.21600000000001 229.216-128 512-128zM512 848c256.272 0 464-207.744 464-464 0-256.272-207.728-464-464-464S48 127.72799999999995 48 384C48 640.256 255.728 848 512 848zM377.728 534.544L480 534.544l0-478c0-17.664 14.336-32 32-32s32 14.336 32 32L544 534.544l102.272 0c17.616 0 23.424 11.568 12.944 25.68l-128.128 172.624c-10.496 14.128-27.664 14.128-38.16 0L364.8 560.24C354.32 546.1120000000001 360.128 534.544 377.728 534.544z"  horiz-adv-x="1024" />

    
    <glyph glyph-name="add-circle" unicode="&#58911;" d="M675.04 412.736l-127.04 0 0 127.264c0 20.064-16.288 36.32-36.32 36.32-20.064 0-36.32-16.192-36.32-36.32l0-127.232-127.072 0c-20.064 0-36.352-16.32-36.352-36.352 0-20.064 16.224-36.352 36.352-36.352l127.072 0 0-127.232c0-20 16.256-36.384 36.32-36.384 20.032 0 36.32 16.256 36.32 36.384l0 127.136 127.04 0c19.968 0 36.352 16.256 36.352 36.384C711.36 396.448 695.136 412.736 675.04 412.736L675.04 412.736zM511.328 830.56c-250.24 0-453.952-203.616-453.952-453.952 0-250.336 203.712-453.952 453.952-453.952 250.336 0 453.984 203.584 453.984 453.952C965.312 626.944 761.696 830.56 511.328 830.56L511.328 830.56zM511.328-20.576000000000022c-219.04 0-397.184 178.176-397.184 397.152 0 219.104 178.144 397.216 397.184 397.216s397.216-178.112 397.216-397.216C908.576 157.63199999999995 730.368-20.576000000000022 511.328-20.576000000000022L511.328-20.576000000000022zM511.328-20.576000000000022"  horiz-adv-x="1024" />

    
    <glyph glyph-name="download-circle" unicode="&#58881;" d="M510.771521 828.211081c-244.998947 0-443.597097-198.60429-443.597097-443.590957s198.59815-443.591981 443.597097-443.591981c244.986667 0 443.583794 198.60429 443.583794 443.591981S755.758188 828.211081 510.771521 828.211081zM510.771521-30.044013999999947c-229.010811 0-414.664138 185.65435-414.664138 414.664138 0 229.010811 185.653327 414.657998 414.664138 414.657998 228.996484 0 414.652881-185.647187 414.652881-414.657998C925.424402 155.60931300000004 739.768005-30.044013999999947 510.771521-30.044013999999947zM662.749888 352.39518799999996L537.719266 245.82501100000002l0 324.388065c0 14.887059-12.06478 26.953885-26.947745 26.953885-14.894222 0-26.961048-12.066827-26.961048-26.953885l0-325.410348L357.936647 352.39518799999996c-10.56359 10.599406-27.693736 10.599406-38.267559 0-10.56359-10.596336-10.56359-27.777647 0-38.375006l170.181961-161.220868c5.629207-5.652743 13.111622-8.060583 20.49887-7.680936 7.373944-0.379647 14.859429 2.02717 20.488637 7.680936l170.181961 161.220868c10.562567 10.597359 10.562567 27.77867 0 38.375006C690.443623 362.99561700000004 673.313477 362.99561700000004 662.749888 352.39518799999996z"  horiz-adv-x="1024" />

    
    <glyph glyph-name="templeate-1" unicode="&#58928;" d="M320 384L106.666667 384c-35.349333 0-64-28.650667-64-64l0-213.333333c0-35.349333 28.650667-64 64-64l213.333333 0c35.349333 0 64 28.650667 64 64L384 320C384 355.349333 355.349333 384 320 384zM256 341.33333300000004l0-256L170.666667 85.33333300000004 170.666667 341.33333300000004 256 341.33333300000004zM85.333333 106.66666699999996L85.333333 320c0 11.754667 9.578667 21.333333 21.333333 21.333333l42.666667 0 0-256L106.666667 85.33333300000004C94.912 85.33333300000004 85.333333 94.91200000000003 85.333333 106.66666699999996zM341.333333 106.66666699999996c0-11.754667-9.578667-21.333333-21.333333-21.333333l-42.666667 0L277.333333 341.33333300000004l42.666667 0c11.754667 0 21.333333-9.578667 21.333333-21.333333L341.333333 106.66666699999996zM576 554.666667L234.666667 554.666667c-47.061333 0-85.333333-38.272-85.333333-85.333333l0-42.666667 42.666667 0 0 42.666667c0 23.530667 19.136 42.666667 42.666667 42.666667l42.666667 0 0-96 21.333333 0L298.666667 512l213.333333 0 0-426.666667-85.333333 0-21.333333-42.666667 170.666667 0c47.061333 0 85.333333 38.272 85.333333 85.333333L661.333333 469.333333C661.333333 516.394667 623.061333 554.666667 576 554.666667zM618.666667 128c0-23.530667-19.136-42.666667-42.666667-42.666667l-42.666667 0L533.333333 512l42.666667 0c23.530667 0 42.666667-19.136 42.666667-42.666667L618.666667 128zM853.333333 42.66666699999996c47.061333 0 85.333333 38.272 85.333333 85.333333L938.666667 640c0 47.061333-38.272 85.333333-85.333333 85.333333L341.333333 725.333333c-47.061333 0-85.333333-38.272-85.333333-85.333333l0-42.666667 42.666667 0 0 42.666667c0 23.530667 19.136 42.666667 42.666667 42.666667l85.333333 0 0-85.333333 21.333333 0 0 85.333333 298.666667 0 0-597.333333-42.666667 0-21.333333-42.666667L853.333333 42.66666699999996zM896 128c0-23.530667-19.136-42.666667-42.666667-42.666667l-85.333333 0L768 682.666667l85.333333 0c23.530667 0 42.666667-19.136 42.666667-42.666667L896 128z"  horiz-adv-x="1024" />

    
    <glyph glyph-name="util" unicode="&#58929;" d="M282.127566 639.0826059999999c-13.120832-13.221116-30.625508-20.50808-49.278333-20.50808-18.618033 0-36.157501 7.286963-49.311079 20.50808l-32.885991 33.019021 98.623181 99.027387 32.885991-33.019021c13.186324-13.221116 20.473287-30.829146 20.473287-49.548486C302.599829 669.8769589999999 295.347658 652.26893 282.127566 639.0826059999999L282.127566 639.0826059999999zM249.308089 705.0899489999999l-0.032746 0-32.884968-32.987299c4.418636-4.417613 10.252505-6.845918 16.458857-6.845918 6.206352 0 12.041244 2.428306 16.426111 6.813173 4.418636 4.452405 6.845918 10.288321 6.845918 16.493649C256.121262 694.802652 253.693979 700.671313 249.308089 705.0899489999999L249.308089 705.0899489999999zM396.703067 496.343671L249.578242 638.778684l32.278147 33.626865 147.157571-142.468782L396.703067 496.343671 396.703067 496.343671zM751.45979 133.92852400000004L618.131179 274.071332l32.884968 32.985252 133.330658-140.141784L751.45979 133.92852400000004 751.45979 133.92852400000004zM850.184279 67.95597399999997c-22.700001-22.766516-52.481282-34.168194-82.264609-34.168194-29.714765 0-59.395762 11.333116-81.994456 34.033118L538.194592 222.398462l32.884968 33.021068L718.811206 100.806149c27.117614-27.183106 71.269183-27.116591 98.488105 0.169869 27.186176 27.287483 27.117614 71.773673-0.135076 99.196233l-147.426701 154.273642 32.851199 33.021068 147.461493-154.308435C895.447159 187.557956 895.514697 113.421468 850.184279 67.95597399999997L850.184279 67.95597399999997zM801.716404 468.380806c-30.726815-30.860868-71.605851-47.861054-115.082038-47.861054-43.442418 0-84.321454 16.999163-115.082038 47.861054-30.760584 30.861892-47.692209 71.877027-47.692209 115.521037s16.931624 84.691891 47.692209 115.554806l42.497906 42.666752 32.885991-32.986275-42.497906-42.667775c-21.99085-22.090111-34.099632-51.367925-34.065863-82.566484 0-31.163767 12.108782-60.441581 34.065863-82.499969 21.956058-22.058388 51.16531-34.20094 82.196047-34.20094 31.064506 0 60.239989 12.142551 82.196047 34.20094l42.49893 42.665729 32.884968-33.019021L801.716404 468.380806 801.716404 468.380806zM844.214311 511.049604l-49.311079 49.51267-16.45988-16.493649c-17.538445-17.638729-40.879036-27.352975-65.73719-27.352975l-0.032746 0c-24.824385 0-48.198745 9.713222-65.73719 27.352975-17.539468 17.607006-27.252691 41.082674-27.252691 66.007343 0 24.925692 9.679453 48.400337 27.252691 66.040089l16.458857 16.495696-49.344848 49.51267 32.885991 33.021068 82.196047-82.533738-49.311079-49.482995c-8.769734-8.835226-13.626345-20.571525-13.626345-33.051767 0-12.446473 4.856611-24.183795 13.626345-32.987299 8.768711-8.835226 20.439518-13.69286 32.884968-13.69286 12.411681 0 24.082488 4.857635 32.852222 13.69286l49.344848 49.514717 82.196047-82.534761L844.214311 511.049604 844.214311 511.049604zM233.591129 129.139451l0 46.681182 46.512337 0 0-46.681182L233.591129 129.139451 233.591129 129.139451zM538.160823 356.538555l-92.247984 91.572602 32.717146 33.18889 92.214215-91.539856L538.160823 356.538555 538.160823 356.538555zM304.2187 101.04355599999997l173.634596 239.842507 37.641295-27.454282L338.318332 69.23715300000003c-21.923312-22.057365-51.132564-34.20094-82.19707-34.20094-31.028691 0-60.237943 12.143575-82.196047 34.168194-21.958104 22.057365-34.065863 51.335179-34.065863 82.533738 0 31.198559 12.107759 60.476373 34.065863 82.533738l2.765997 2.360767L417.243893 412.054963l27.353998-37.742603L205.596542 200.00340600000004c-12.411681-13.053294-19.224854-30.119995-19.224854-48.26526 0-18.71934 7.252171-36.291554 20.438495-49.513694C232.747925 76.15265599999998 277.775444 75.71263499999998 304.2187 101.04355599999997L304.2187 101.04355599999997z"  horiz-adv-x="1024" />

    
    <glyph glyph-name="face-surprised" unicode="&#58980;" d="M485.656116-128C221.592397-128 6.762016 86.81718000000001 6.762016 350.87649799999997s214.830381 478.867697 478.8941 478.867697c264.041716 0 478.854495-214.812779 478.854495-478.867697S749.697832-128 485.656116-128zM485.656116 798.834741c-247.024795 0-447.975846-200.959852-447.975846-447.962644 0-247.002792 200.951051-447.962644 447.975846-447.962644 247.002792 0 447.953843 200.959852 447.953843 447.962644C933.609959 597.8748889999999 732.658908 798.834741 485.656116 798.834741zM352.033458 447.380528c0-30.469398-24.682677-55.147675-55.143274-55.147675-30.451796 0-55.143274 24.678276-55.143274 55.147675 0 30.460597 24.691478 55.138874 55.143274 55.138874C327.350781 502.519402 352.033458 477.845526 352.033458 447.380528zM674.417647 502.519402c-30.460597 0-55.156476-24.678276-55.156476-55.138874 0-30.469398 24.695879-55.147675 55.156476-55.147675 30.451796 0 55.143274 24.678276 55.143274 55.147675C729.560922 477.845526 704.869444 502.519402 674.417647 502.519402zM562.005634 165.30976499999997c0-59.733046-34.192262-108.165484-76.349518-108.165484-42.166057 0-76.36272 48.432438-76.36272 108.165484 0 59.724245 34.196663 108.152282 76.36272 108.152282C527.813371 273.45764699999995 562.005634 225.03400999999997 562.005634 165.30976499999997zM835.631745 793.712503c0 0 12.871605 56.819883 41.959231 85.925112 29.083226 29.096427 69.915916 15.124685 78.492585-8.801097 9.461179-26.385689-2.033053-50.069442-29.092027-56.164202C899.404495 808.463141 874.880237 826.192952 835.631745 793.712503zM916.698651 757.570797c0 0 35.767659 20.576965 64.877288 19.393218 29.136032-1.174946 41.431165-29.144833 33.109728-45.110024-9.192746-17.588993-27.054573-22.966463-43.217788-11.797871C954.979023 731.44034 952.453108 752.721393 916.698651 757.570797z"  horiz-adv-x="1024" />

    
    <glyph glyph-name="edit" unicode="&#58946;" d="M769.089 516.251l-125.896 125.89 62.974 62.947c20.866 20.838 54.652 20.838 75.517 0l50.353-50.351c20.865-20.865 20.865-54.703 0-75.567L769.089 516.251zM403.349 150.52700000000004L277.453 276.418 619.706 615.982 745.601 490.09ZM176.314 47.283000000000015L252.912 251.87699999999995 377.753 127.01199999999994Z"  horiz-adv-x="1024" />

    
    <glyph glyph-name="speaker" unicode="&#58949;" d="M587.182306 754.7203c-6.003737 2.705622-13.043061 1.642406-17.984606-2.721994l-259.223926-229.293243-148.246369 0c-9.253758 0-16.752546-7.498788-16.752546-16.756639l0-267.886213c0-9.249665 7.498788-16.756639 16.752546-16.756639l144.050814 0c9.253758 0 16.752546 7.506974 16.752546 16.756639L322.530764 490.391099c1.774413 0.704035 3.433192 1.719154 4.892427 3.010567l236.127905 208.861912 0-653.332912-160.751171 137.64287c-2.12643 1.824555-90.300632 78.69941-93.927229 76.162634-4.427846-3.097548-15.768125-17.59882-18.419512-22.512736-0.953721-1.768273-2.196015-1.334391 15.413038-16.379039 25.674753-21.936615 73.780377-61.548798 75.144444-62.717414l10.007935-8.570189 178.388876-152.761196c3.093455-2.653433 6.978948-4.028757 10.900258-4.028757 2.369977 0 4.756327 0.503467 7.003508 1.534959 5.939269 2.738367 9.749038 8.677637 9.749038 15.217586L597.060281 739.446431C597.060281 746.034477 593.190137 752.013655 587.182306 754.7203L587.182306 754.7203zM290.453185 254.814756l-115.040083 0L175.413102 489.195877l115.03906 0 0-234.381122L290.453185 254.814756zM747.742119 375.98444300000006c0-51.55212-34.83232-96.658434-84.702124-109.693308-1.415232-0.375553-2.846838-0.551562-4.245697-0.551562-7.438413 0-14.234189 4.992711-16.200984 12.523221-2.338255 8.949836 3.021823 18.104333 11.967566 20.442588 35.136242 9.18929 59.672054 40.96397 59.672054 77.279061 0 36.307927-24.535813 68.090794-59.672054 77.271898-8.945743 2.346441-14.305821 11.492752-11.967566 20.450774 2.342348 8.953929 11.499915 14.305821 20.446681 11.967566C712.909799 472.643899 747.742119 427.530422 747.742119 375.98444300000006L747.742119 375.98444300000006zM864.950588 375.793084c0-88.87619-48.554856-170.44495-126.718053-212.883505-2.537799-1.375324-5.276167-2.02717-7.982812-2.02717-5.939269 0-11.69946 3.166109-14.733563 8.762571-4.417613 8.134261-1.39886 18.303878 6.727215 22.720468 67.350944 36.566824 109.198028 106.851587 109.198028 183.427636 0 76.844156-42.055838 147.272181-109.741403 183.78784-8.154727 4.396123-11.192923 14.557554-6.795776 22.700001 4.38896 8.142447 14.558577 11.184737 22.701025 6.795776C816.151162 546.697499 864.950588 464.976266 864.950588 375.793084L864.950588 375.793084z"  horiz-adv-x="1024" />

    
    <glyph glyph-name="down" unicode="&#58906;" d="M888.306 619.94c15.615 15.617 40.93 15.617 56.545 0v0c15.617-15.615 15.617-40.93 0-56.545l-405.733-405.734c-15.615-15.617-40.928-15.617-56.545 0v0c-15.615 15.615-15.615 40.93 0 56.545l405.733 405.734zM538.619 214.20600000000002c15.617-15.615 15.617-40.93 0-56.545v0c-15.615-15.617-40.928-15.617-56.545 0l-405.734 405.734c-15.615 15.615-15.615 40.93 0 56.545v0c15.617 15.617 40.93 15.617 56.547 0l405.732-405.734zM538.619 214.20600000000002z"  horiz-adv-x="1024" />

    
    <glyph glyph-name="file" unicode="&#58913;" d="M887.443911 598.6304l0-44.578133 0-45.511111 0-477.866667c0-37.705956-30.560711-68.266667-68.266667-68.266667l-614.4 0c-37.705956 0-68.266667 30.560711-68.266667 68.266667l0 705.422222c0 37.6832 30.560711 68.266667 68.266667 68.266667l386.844444 0 45.511111 0 38.024533 0c7.805156 2.594133 16.566044 1.2288 22.778311-5.006222l183.136711-183.159467C885.919289 611.373511 887.876267 604.9564439999999 887.443911 598.6304zM659.888356 531.296711c-12.583822 0-22.755556 10.171733-22.755556 22.755556l0 204.8-45.511111 0-364.088889 0c-25.122133 0-45.511111-20.388978-45.511111-45.511111l0-659.911111c0-25.122133 20.388978-45.511111 45.511111-45.511111l568.888889 0c25.122133 0 45.511111 20.388978 45.511111 45.511111l0 455.111111 0 22.755556L659.888356 531.296711zM682.643911 750.273422l0-173.4656 159.288889 0 0 14.176711L682.643911 750.273422z"  horiz-adv-x="1024" />

    
    <glyph glyph-name="layouts" unicode="&#58930;" d="M917.213-103.239h-810.426c-23.151 0-41.918 18.766-41.918 41.917l0 698.644c0 23.148 18.767 41.917 41.918 41.917h810.426c23.149 0 41.918-18.769 41.918-41.917v-698.643c0-23.151-18.769-41.918-41.918-41.918zM316.38-61.321h600.833v363.294h-600.833v-363.294zM106.787-61.321h167.674v363.294h-167.674v-363.294zM148.705 637.322c-23.151 0-41.918-18.769-41.918-41.92s18.767-41.92 41.918-41.92 41.92 18.768 41.92 41.92-18.769 41.92-41.92 41.92zM274.461 637.322c-23.151 0-41.918-18.769-41.918-41.92s18.767-41.92 41.918-41.92c23.151 0 41.92 18.768 41.92 41.92s-18.77 41.92-41.92 41.92zM400.216 637.322c-23.15 0-41.918-18.769-41.918-41.92s18.769-41.92 41.918-41.92c23.152 0 41.92 18.768 41.92 41.92s-18.768 41.92-41.92 41.92zM875.293 511.566h-768.506v-167.675h810.426l0 167.675h-41.921z"  horiz-adv-x="1024" />

    
    <glyph glyph-name="rate-half" unicode="&#59081;" d="M1012.064 504l-359.552 31.008-140.512 331.04-140.512-331.552-359.552-30.496 273.024-236.544-82.016-351.552 309.056 186.528 309.056-186.528-81.504 351.552 272.544 236.544zM512 195.96799999999996l0 465.056 85.504-202.016 219.04-19.008-166.016-144.032 50.016-214.016-188.512 114.016z"  horiz-adv-x="1024" />

    
    <glyph glyph-name="add-circle-fine" unicode="&#58888;" d="M509.989715-60.972421000000054c-246.734474 0-446.75195 200.023616-446.75195 446.75809 0 246.732427 200.017476 446.75195 446.75195 446.75195 246.733451 0 446.757067-200.019523 446.757067-446.75195C956.746782 139.051195 756.723166-60.972421000000054 509.989715-60.972421000000054L509.989715-60.972421000000054zM509.989715 812.433746c-235.633648 0-426.650123-191.014428-426.650123-426.648077 0-235.639788 191.016475-426.654216 426.650123-426.654216 235.638765 0 426.654216 191.014428 426.654216 426.654216C936.643931 621.419318 745.62848 812.433746 509.989715 812.433746L509.989715 812.433746zM527.863804 153.46957999999995l-35.741016 0L492.122789 367.909533 277.678742 367.909533 277.678742 403.653619l214.443024 0L492.121765 618.0956189999999l35.741016 0L527.862781 403.653619l214.442 0 0-35.744086L527.863804 367.909533 527.863804 153.46957999999995 527.863804 153.46957999999995zM527.863804 153.46957999999995"  horiz-adv-x="1024" />

    
    <glyph glyph-name="prev-circle" unicode="&#58931;" d="M508.638018 827.97307c-246.403458 0-446.845649-200.463469-446.845649-446.845649 0-246.382179 200.442191-446.845649 446.845649-446.845649 246.382179 0 446.845649 200.463469 446.845649 446.845649C955.483667 627.5096 755.041476 827.97307 508.638018 827.97307zM508.638018-23.16149900000005c-222.933422 0-404.28892 181.355498-404.28892 404.28892 0 222.933422 181.355498 404.28892 404.28892 404.28892 222.912144 0 404.28892-181.355498 404.28892-404.28892C912.926939 158.19399899999996 731.57144-23.16149900000005 508.638018-23.16149900000005zM252.87208 485.1999c8.639016 26.129831-32.470784 37.215859-41.067243 11.32009-27.810822-83.730363-22.321004-168.545923 14.086277-248.573851 11.362646-24.938243 48.025268-3.298146 36.747735 21.491148C230.976644 339.081373 228.806251 412.853462 252.87208 485.1999zM599.262572 247.73335499999996l-127.627629 133.394065 127.47868 133.223838c9.043305 9.064583 9.022026 23.789211-0.021278 32.832516-8.809243 8.830521-24.087108 8.766686-32.832516 0l-148.310199-148.310199c-4.617405-4.638683-6.979303-11.064749-6.553736-17.746156-0.404289-6.702685 1.936331-13.107472 6.575015-17.788712l148.310199-148.28892c4.383343-4.383343 10.213615-6.787798 16.405619-6.787798 6.170726 0 12.000997 2.404455 16.405619 6.787798C608.156928 224.114371 608.156928 238.83899899999994 599.262572 247.73335499999996z"  horiz-adv-x="1024" />

    
    <glyph glyph-name="read" unicode="&#59141;" d="M335.282306 712.495464C399.587328 713.451107 442.778899 696.882717 470.183494 669.3706540000001 479.127332 660.39174 485.691302 650.857363 490.241971 641.442689 492.795622 636.159553 494.049041 632.438701 494.358795 631.0740940000001L493.723712 636.7409230000001 493.723706 196.90019600000005C493.723706 199.018106 495.816045 203.920655 503.591595 207.36436700000002 511.039185 210.66283299999998 515.68422 209.16527399999995 517.176538 207.906613L500.671543 188.33763 521.297207 203.50146800000005C514.140179 213.23636899999997 499.631258 225.71450900000002 476.134074 237.35914000000002 439.577969 255.475456 390.86048 266.10507900000005 328.491925 266.10508200000004 265.860796 266.10508200000004 219.424582 255.71817999999996 186.827162 237.741581 164.977332 225.69198700000004 152.538132 212.28117299999997 147.220271 201.30886999999996L170.257196 190.14374199999997 151.035786 207.05224299999998C152.884078 209.15336100000002 158.307299 211.80336599999998 167.849005 208.050434 177.092077 204.41496099999995 179.2 199.20011699999998 179.2 196.66445199999998L179.2 497.049743 179.2 636.7409230000001 175.817447 624.023021C177.078908 626.226721 180.088681 630.807811 184.828724 636.965629 192.95423 647.521524 202.792594 658.127492 214.297641 668.007961 247.526453 696.544681 287.381649 713.209056 334.514421 712.495571L335.282306 712.495464ZM335.289387 763.689705C274.661039 764.607483 223.081402 743.04085 180.940156 706.850184 156.32698 685.712527 139.975514 664.470237 131.382553 649.4588249999999L128 643.549699 128 636.7409230000001 128 497.049743 128 196.66445199999998C128 159.26104999999995 164.542545 144.88818300000003 189.478606 173.23524099999997L191.776657 175.84764199999995 193.294121 178.978613C194.07832 180.59664399999997 199.156367 186.07133399999998 211.552092 192.907243 236.030601 206.40648099999999 274.024879 214.905082 328.491925 214.905082 383.221547 214.905079 424.163878 205.97190999999998 453.399258 191.483569 469.376966 183.56540600000005 477.614626 176.48075300000005 480.045882 173.17379000000005L481.844905 170.72677999999996 484.166551 168.768644C511.279708 145.90070000000003 544.923706 160.801293 544.923706 196.90019600000005L544.923712 636.740922 544.288627 642.407751C540.427211 659.419023 529.175531 682.697124 506.45814 705.503602 468.987716 743.1209699999999 412.352271 764.846461 334.521502 763.689812L335.289387 763.689705ZM0 506.026694L0 27.856867999999963C0-8.875636999999983 34.793167-23.40043300000002 61.4635 1.2485080000000153L63.46242 3.315859000000046C65.301149 5.444836000000009 69.655573 9.862312999999972 76.498228 15.820363000000043 88.306297 26.101906999999983 102.566352 36.46294 119.251411 46.17438500000003 167.295691 74.13829099999998 224.90855 90.95018200000004 292.337329 90.95018200000004 358.378978 90.95018000000005 409.459345 71.66956600000003 448.125308 39.64774 461.506042 28.56627400000002 472.380655 16.734758000000056 480.912593 4.997000999999955 485.832384-1.7713730000000396 488.762874-6.741985999999997 489.872527-9.02252199999998 496.058545-21.73590200000001 511.379537-27.027375000000006 524.092917-20.84135500000002 536.806298-14.655337000000031 542.097771 0.6656550000000152 535.91175 13.379036000000042 527.471002 30.726293000000055 509.777717 55.06771800000001 480.782336 79.08069999999998 433.134118 118.54132300000003 370.586889 142.15017999999998 292.337329 142.15018199999997 215.474895 142.15018499999996 149.074727 122.77408400000002 93.495781 90.424668 59.761154 70.78961500000003 36.872315 50.859801999999945 24.713677 36.78188399999999L44.088049 20.048869999999965 26.712598 38.84923500000002C28.162783 40.189508000000046 32.877261 41.946117999999956 40.792576 38.64178100000004 49.035365 35.200736000000006 51.2 30.12989200000004 51.2 27.856867999999963L51.2 506.026694C51.2 520.165184 39.73849 531.626694 25.6 531.626694 11.46151 531.626694 0 520.165184 0 506.026694L0 506.026694ZM696.80221 763.689812C618.971441 764.846461 562.335996 743.1209699999999 524.86557 705.503602 502.148181 682.697124 490.896501 659.419023 487.035083 642.407751L486.4 636.740922 486.400004 196.90019600000005C486.400006 160.801293 520.044004 145.90070000000003 547.157161 168.768644L549.478807 170.72677999999996 551.27783 173.17379000000005C553.709086 176.48075300000005 561.946746 183.56540600000005 577.924452 191.483569 607.159834 205.97190999999998 648.102165 214.905079 702.831787 214.905082 757.298833 214.905082 795.293111 206.40648099999999 819.77162 192.907243 832.167345 186.07133399999998 837.245391 180.59664399999997 838.029591 178.978613L839.547055 175.84764199999995 841.845105 173.23524099999997C866.781167 144.88818300000003 903.323712 159.26104999999995 903.323712 196.66445199999998L903.323712 497.049743 903.323712 636.7409230000001 903.323712 643.549699 899.941158 649.4588249999999C891.348196 664.470237 874.996732 685.712527 850.383556 706.850184 808.24231 743.04085 756.662673 764.607483 696.034325 763.689705L696.80221 763.689812ZM696.809291 712.495571C743.942063 713.209056 783.797257 696.544681 817.026071 668.007961 828.531119 658.127492 838.369481 647.521524 846.494989 636.965629 851.235031 630.807811 854.244804 626.226721 855.506263 624.023021L852.123712 636.7409230000001 852.123712 497.049743 852.123712 196.66445199999998C852.123712 199.20011699999998 854.231635 204.41496099999995 863.474707 208.050434 873.016412 211.80336599999998 878.439633 209.15336100000002 880.287925 207.05224299999998L861.066515 190.14374199999997 884.103441 201.30886999999996C878.785579 212.28117299999997 866.346381 225.69198700000004 844.49655 237.741581 811.89913 255.71817999999996 765.462916 266.10508200000004 702.831785 266.10508200000004 640.463232 266.10507900000005 591.745741 255.475456 555.189638 237.35914000000002 531.692454 225.71450900000002 517.183533 213.23636899999997 510.026502 203.50146800000005L530.652166 188.33763 514.147172 207.906613C515.63949 209.16527399999995 520.284527 210.66283299999998 527.732117 207.36436700000002 535.507665 203.920655 537.600004 199.018106 537.600004 196.90019600000005L537.6 636.7409230000001 536.964917 631.0740940000001C537.274671 632.438701 538.52809 636.159553 541.081741 641.442689 545.63241 650.857363 552.196378 660.39174 561.140218 669.3706540000001 588.544813 696.882717 631.736384 713.451107 696.041406 712.495464L696.809291 712.495571ZM972.799998 506.026694L972.799998 27.856867999999963C972.799998 30.12989200000004 974.964631 35.200736000000006 983.207422 38.64178100000004 991.122737 41.946117999999956 995.837214 40.189508000000046 997.287401 38.84923500000002L979.911949 20.048869999999965 999.286321 36.78188399999999C987.127682 50.859801999999945 964.238844 70.78961500000003 930.504218 90.424668 874.925269 122.77408400000002 808.525103 142.15018499999996 731.662669 142.15018199999997 653.132708 142.15017999999998 590.55104 117.26282200000003 543.127755 75.73800100000005 514.370099 50.55719499999998 496.945662 25.10259599999995 488.705389 7.022771000000034 482.841769-5.842485000000011 488.517717-21.02524200000005 501.382974-26.888862000000017 514.248233-32.752481999999986 529.430987-27.07653300000004 535.294607-14.211275 536.420563-11.740835999999945 539.350332-6.450639000000024 544.25735 0.7178109999999833 552.731727 13.097653000000037 563.54464 25.561581000000047 576.856734 37.21792900000003 615.190044 70.78337499999998 665.901421 90.95018000000005 731.662669 90.95018200000004 799.091447 90.95018200000004 856.704307 74.13829099999998 904.748587 46.17438500000003 921.433645 36.46294 935.6937 26.101906999999983 947.501771 15.820363000000043 954.344425 9.862312999999972 958.698848 5.444836000000009 960.537577 3.315859000000046L962.536497 1.2485080000000153C989.206831-23.40043300000002 1023.999998-8.875636999999983 1023.999998 27.856867999999963L1023.999998 506.026694C1023.999998 520.165184 1012.538487 531.626694 998.399998 531.626694 984.261508 531.626694 972.799998 520.165184 972.799998 506.026694L972.799998 506.026694Z"  horiz-adv-x="1024" />

    
    </font>
</defs>
</svg>
